<svg version="1.1" viewBox="0.0 0.0 600.0 371.0" fill="none" stroke="none" stroke-linecap="square" stroke-miterlimit="10" width="600" height="371" xmlns:xlink="http://www.w3.org/1999/xlink" xmlns="http://www.w3.org/2000/svg"><path fill="#ffffff" d="M0 0L600.0 0L600.0 371.0L0 371.0L0 0Z" fill-rule="nonzero"/><path stroke="#333333" stroke-width="1.0" stroke-linecap="butt" d="M94.5 62.5L94.5 298.5" fill-rule="nonzero"/><path stroke="#cccccc" stroke-width="1.0" stroke-linecap="butt" d="M198.5 62.5L198.5 298.5" fill-rule="nonzero"/><path stroke="#cccccc" stroke-width="1.0" stroke-linecap="butt" d="M302.5 62.5L302.5 298.5" fill-rule="nonzero"/><path stroke="#cccccc" stroke-width="1.0" stroke-linecap="butt" d="M405.5 62.5L405.5 298.5" fill-rule="nonzero"/><path stroke="#cccccc" stroke-width="1.0" stroke-linecap="butt" d="M509.5 62.5L509.5 298.5" fill-rule="nonzero"/><path stroke="#cccccc" stroke-width="1.0" stroke-linecap="butt" d="M85.5 298.5L581.5 298.5" fill-rule="nonzero"/><path stroke="#cccccc" stroke-width="1.0" stroke-linecap="butt" d="M85.5 256.5L581.5 256.5" fill-rule="nonzero"/><path stroke="#cccccc" stroke-width="1.0" stroke-linecap="butt" d="M85.5 232.5L581.5 232.5" fill-rule="nonzero"/><path stroke="#cccccc" stroke-width="1.0" stroke-linecap="butt" d="M85.5 214.5L581.5 214.5" fill-rule="nonzero"/><path stroke="#cccccc" stroke-width="1.0" stroke-linecap="butt" d="M85.5 201.5L581.5 201.5" fill-rule="nonzero"/><path stroke="#cccccc" stroke-width="1.0" stroke-linecap="butt" d="M85.5 159.5L581.5 159.5" fill-rule="nonzero"/><path stroke="#cccccc" stroke-width="1.0" stroke-linecap="butt" d="M85.5 117.5L581.5 117.5" fill-rule="nonzero"/><path stroke="#cccccc" stroke-width="1.0" stroke-linecap="butt" d="M85.5 93.5L581.5 93.5" fill-rule="nonzero"/><path stroke="#cccccc" stroke-width="1.0" stroke-linecap="butt" d="M85.5 75.5L581.5 75.5" fill-rule="nonzero"/><path stroke="#cccccc" stroke-width="1.0" stroke-linecap="butt" d="M85.5 62.5L581.5 62.5" fill-rule="nonzero"/><clipPath id="id_0"><path d="M85.55 62.416668L581.45 62.416668L581.45 298.45L85.55 298.45L85.55 62.416668Z" clip-rule="nonzero"/></clipPath><path stroke="#4285f4" stroke-width="2.0" stroke-linecap="butt" clip-path="url(#id_0)" d="M95.16233 -2.6737072C95.16233 -2.6737072 108.979004 83.29808 115.887344 108.60145C122.795685 133.90482 129.70403 141.83148 136.61235 149.1465C143.52069 156.46152 150.42903 151.49197 157.33737 152.49158C164.24571 153.49118 171.15405 150.63191 178.0624 155.1441C184.97073 159.6563 191.87906 172.47627 198.7874 179.56473C205.69574 186.65318 212.60408 193.43404 219.51242 197.67485C226.42076 201.91566 254.05411 209.97485 260.96243 212.34442C267.8708 214.71397 274.7791 217.3518 281.68747 219.22702C288.5958 221.10223 295.50415 221.40034 302.41248 223.59573C309.3208 225.79112 336.95416 240.18718 343.86252 241.20297C350.77084 242.21875 357.6792 236.82295 364.58752 238.49403C371.49585 240.16512 378.4042 248.98883 385.31253 251.22948C392.2209 253.47012 399.1292 253.11244 406.03757 251.93791C412.9459 250.7634 419.85422 244.5318 426.76257 244.18234C433.6709 243.83289 440.57925 246.89551 447.48758 249.84116C454.39594 252.78682 482.02927 273.41092 488.93762 273.87137C495.84595 274.33182 502.7543 266.23175 509.66263 264.61896C516.571 263.0062 523.4793 261.67963 530.38763 264.19467C537.29596 266.70972 544.20435 279.01358 551.1127 279.70926C558.021 280.40494 571.83765 268.36874 571.83765 268.36874" fill-rule="nonzero"/><path fill="#4285f4" clip-path="url(#id_0)" d="M101.16233 -2.6737072C101.16233 0.6400012 98.476036 3.3262928 95.16233 3.3262928C91.84862 3.3262928 89.16233 0.6400012 89.16233 -2.6737072C89.16233 -5.987416 91.84862 -8.673707 95.16233 -8.673707C98.476036 -8.673707 101.16233 -5.987416 101.16233 -2.6737072Z" fill-rule="nonzero"/><path fill="#4285f4" clip-path="url(#id_0)" d="M121.887344 108.60145C121.887344 111.91515 119.20105 114.60145 115.887344 114.60145C112.57363 114.60145 109.887344 111.91515 109.887344 108.60145C109.887344 105.28774 112.57363 102.60145 115.887344 102.60145C119.20105 102.60145 121.887344 105.28774 121.887344 108.60145Z" fill-rule="nonzero"/><path fill="#4285f4" clip-path="url(#id_0)" d="M142.61235 149.1465C142.61235 152.4602 139.92607 155.1465 136.61235 155.1465C133.29865 155.1465 130.61235 152.4602 130.61235 149.1465C130.61235 145.8328 133.29865 143.1465 136.61235 143.1465C139.92607 143.1465 142.61235 145.8328 142.61235 149.1465Z" fill-rule="nonzero"/><path fill="#4285f4" clip-path="url(#id_0)" d="M163.33737 152.49158C163.33737 155.80528 160.65108 158.49158 157.33737 158.49158C154.02367 158.49158 151.33737 155.80528 151.33737 152.49158C151.33737 149.17787 154.02367 146.49158 157.33737 146.49158C160.65108 146.49158 163.33737 149.17787 163.33737 152.49158Z" fill-rule="nonzero"/><path fill="#4285f4" clip-path="url(#id_0)" d="M184.0624 155.1441C184.0624 158.45782 181.3761 161.1441 178.0624 161.1441C174.74867 161.1441 172.0624 158.45782 172.0624 155.1441C172.0624 151.8304 174.74867 149.1441 178.0624 149.1441C181.3761 149.1441 184.0624 151.8304 184.0624 155.1441Z" fill-rule="nonzero"/><path fill="#4285f4" clip-path="url(#id_0)" d="M204.7874 179.56473C204.7874 182.87843 202.1011 185.56473 198.7874 185.56473C195.4737 185.56473 192.7874 182.87843 192.7874 179.56473C192.7874 176.25102 195.4737 173.56473 198.7874 173.56473C202.1011 173.56473 204.7874 176.25102 204.7874 179.56473Z" fill-rule="nonzero"/><path fill="#4285f4" clip-path="url(#id_0)" d="M225.51242 197.67485C225.51242 200.98856 222.82613 203.67485 219.51242 203.67485C216.19872 203.67485 213.51242 200.98856 213.51242 197.67485C213.51242 194.36115 216.19872 191.67485 219.51242 191.67485C222.82613 191.67485 225.51242 194.36115 225.51242 197.67485Z" fill-rule="nonzero"/><path fill="#4285f4" clip-path="url(#id_0)" d="M266.96243 212.34442C266.96243 215.65813 264.27615 218.34442 260.96243 218.34442C257.64874 218.34442 254.96245 215.65813 254.96245 212.34442C254.96245 209.0307 257.64874 206.34442 260.96243 206.34442C264.27615 206.34442 266.96243 209.0307 266.96243 212.34442Z" fill-rule="nonzero"/><path fill="#4285f4" clip-path="url(#id_0)" d="M287.68747 219.22702C287.68747 222.54073 285.00116 225.22702 281.68747 225.22702C278.37375 225.22702 275.68747 222.54073 275.68747 219.22702C275.68747 215.91331 278.37375 213.22702 281.68747 213.22702C285.00116 213.22702 287.68747 215.91331 287.68747 219.22702Z" fill-rule="nonzero"/><path fill="#4285f4" clip-path="url(#id_0)" d="M308.41248 223.59573C308.41248 226.90944 305.7262 229.59573 302.41248 229.59573C299.09875 229.59573 296.41248 226.90944 296.41248 223.59573C296.41248 220.28201 299.09875 217.59573 302.41248 217.59573C305.7262 217.59573 308.41248 220.28201 308.41248 223.59573Z" fill-rule="nonzero"/><path fill="#4285f4" clip-path="url(#id_0)" d="M349.86252 241.20297C349.86252 244.51668 347.1762 247.20297 343.86252 247.20297C340.5488 247.20297 337.86252 244.51668 337.86252 241.20297C337.86252 237.88925 340.5488 235.20297 343.86252 235.20297C347.1762 235.20297 349.86252 237.88925 349.86252 241.20297Z" fill-rule="nonzero"/><path fill="#4285f4" clip-path="url(#id_0)" d="M370.58752 238.49403C370.58752 241.80774 367.90125 244.49403 364.58752 244.49403C361.2738 244.49403 358.58752 241.80774 358.58752 238.49403C358.58752 235.18033 361.2738 232.49403 364.58752 232.49403C367.90125 232.49403 370.58752 235.18033 370.58752 238.49403Z" fill-rule="nonzero"/><path fill="#4285f4" clip-path="url(#id_0)" d="M391.31253 251.22948C391.31253 254.54318 388.62625 257.22946 385.31253 257.22946C381.99884 257.22946 379.31253 254.54318 379.31253 251.22948C379.31253 247.91576 381.99884 245.22948 385.31253 245.22948C388.62625 245.22948 391.31253 247.91576 391.31253 251.22948Z" fill-rule="nonzero"/><path fill="#4285f4" clip-path="url(#id_0)" d="M412.03757 251.93791C412.03757 255.25163 409.35126 257.93793 406.03757 257.93793C402.72385 257.93793 400.03757 255.25163 400.03757 251.93791C400.03757 248.6242 402.72385 245.93791 406.03757 245.93791C409.35126 245.93791 412.03757 248.6242 412.03757 251.93791Z" fill-rule="nonzero"/><path fill="#4285f4" clip-path="url(#id_0)" d="M432.76257 244.18234C432.76257 247.49605 430.07626 250.18234 426.76257 250.18234C423.44885 250.18234 420.76257 247.49605 420.76257 244.18234C420.76257 240.86864 423.44885 238.18234 426.76257 238.18234C430.07626 238.18234 432.76257 240.86864 432.76257 244.18234Z" fill-rule="nonzero"/><path fill="#4285f4" clip-path="url(#id_0)" d="M453.48758 249.84116C453.48758 253.15488 450.8013 255.84116 447.48758 255.84116C444.17386 255.84116 441.48758 253.15488 441.48758 249.84116C441.48758 246.52745 444.17386 243.84116 447.48758 243.84116C450.8013 243.84116 453.48758 246.52745 453.48758 249.84116Z" fill-rule="nonzero"/><path fill="#4285f4" clip-path="url(#id_0)" d="M494.93762 273.87137C494.93762 277.1851 492.2513 279.87137 488.93762 279.87137C485.6239 279.87137 482.93762 277.1851 482.93762 273.87137C482.93762 270.55765 485.6239 267.87137 488.93762 267.87137C492.2513 267.87137 494.93762 270.55765 494.93762 273.87137Z" fill-rule="nonzero"/><path fill="#4285f4" clip-path="url(#id_0)" d="M515.6626 264.61896C515.6626 267.93268 512.9763 270.61896 509.66263 270.61896C506.3489 270.61896 503.66263 267.93268 503.66263 264.61896C503.66263 261.30527 506.3489 258.61896 509.66263 258.61896C512.9763 258.61896 515.6626 261.30527 515.6626 264.61896Z" fill-rule="nonzero"/><path fill="#4285f4" clip-path="url(#id_0)" d="M536.38763 264.19467C536.38763 267.5084 533.70135 270.19467 530.38763 270.19467C527.0739 270.19467 524.38763 267.5084 524.38763 264.19467C524.38763 260.88095 527.0739 258.19467 530.38763 258.19467C533.70135 258.19467 536.38763 260.88095 536.38763 264.19467Z" fill-rule="nonzero"/><path fill="#4285f4" clip-path="url(#id_0)" d="M557.1127 279.70926C557.1127 283.02298 554.4264 285.70926 551.1127 285.70926C547.79895 285.70926 545.1127 283.02298 545.1127 279.70926C545.1127 276.39554 547.79895 273.70926 551.1127 273.70926C554.4264 273.70926 557.1127 276.39554 557.1127 279.70926Z" fill-rule="nonzero"/><path fill="#4285f4" clip-path="url(#id_0)" d="M577.83765 268.36874C577.83765 271.68243 575.15137 274.36874 571.83765 274.36874C568.524 274.36874 565.83765 271.68243 565.83765 268.36874C565.83765 265.05502 568.524 262.36874 571.83765 262.36874C575.15137 262.36874 577.83765 265.05502 577.83765 268.36874Z" fill-rule="nonzero"/><path fill="#424242" d="M278.04688 349.45L276.92188 349.45L272.625 342.8719L272.625 349.45L271.48438 349.45L271.48438 340.91876L272.625 340.91876L276.92188 347.52814L276.92188 340.91876L278.04688 340.91876L278.04688 349.45ZM280.21875 342.8719Q280.21875 341.95 280.76562 341.3719Q281.3125 340.79376 282.21875 340.79376Q283.125 340.79376 283.67188 341.3719Q284.23438 341.9344 284.23438 342.90314L284.23438 343.34064Q284.23438 344.2625 283.6875 344.84064Q283.14062 345.40314 282.23438 345.40314Q281.32812 345.40314 280.76562 344.84064Q280.21875 344.2625 280.21875 343.3094L280.21875 342.8719ZM281.17188 343.34064Q281.17188 343.91876 281.45312 344.2625Q281.73438 344.59064 282.23438 344.59064Q282.71875 344.59064 283.0 344.2625Q283.28125 343.91876 283.28125 343.325L283.28125 342.8719Q283.28125 342.29376 282.98438 341.96564Q282.70312 341.6219 282.21875 341.6219Q281.75 341.6219 281.46875 341.95Q281.1875 342.2625 281.17188 342.84064L281.17188 343.34064ZM288.0625 346.23126Q288.0625 344.7625 288.75 343.8875Q289.4375 342.9969 290.5625 342.9969Q291.67188 342.9969 292.32812 343.7469L292.32812 340.45L293.40625 340.45L293.40625 349.45L292.40625 349.45L292.35938 348.7625Q291.70312 349.575 290.54688 349.575Q289.45312 349.575 288.75 348.66876Q288.0625 347.7625 288.0625 346.3094L288.0625 346.23126ZM289.14062 346.35626Q289.14062 347.4344 289.57812 348.04376Q290.03125 348.65314 290.8125 348.65314Q291.84375 348.65314 292.32812 347.71564L292.32812 344.8094Q291.84375 343.91876 290.82812 343.91876Q290.03125 343.91876 289.57812 344.52814Q289.14062 345.1375 289.14062 346.35626ZM297.95312 349.575Q296.65625 349.575 295.84375 348.73126Q295.04688 347.8719 295.04688 346.45L295.04688 346.2625Q295.04688 345.3094 295.40625 344.575Q295.76562 343.825 296.40625 343.41876Q297.0625 342.9969 297.8125 342.9969Q299.04688 342.9969 299.73438 343.8094Q300.42188 344.6219 300.42188 346.1375L300.42188 346.59064L296.125 346.59064Q296.15625 347.52814 296.67188 348.10626Q297.20312 348.6844 298.01562 348.6844Q298.57812 348.6844 298.96875 348.45Q299.375 348.21564 299.6875 347.825L300.34375 348.34064Q299.54688 349.575 297.95312 349.575ZM297.8125 343.8875Q297.15625 343.8875 296.70312 344.3719Q296.26562 344.84064 296.17188 345.7L299.34375 345.7L299.34375 345.6219Q299.29688 344.79376 298.89062 344.34064Q298.5 343.8875 297.8125 343.8875ZM304.03125 346.21564Q304.03125 345.29376 304.39062 344.54376Q304.76562 343.79376 305.42188 343.40314Q306.07812 342.9969 306.90625 342.9969Q308.20312 342.9969 309.0 343.8875Q309.8125 344.77814 309.8125 346.27814L309.8125 346.35626Q309.8125 347.27814 309.45312 348.0125Q309.09375 348.7469 308.4375 349.16876Q307.78125 349.575 306.92188 349.575Q305.64062 349.575 304.82812 348.6844Q304.03125 347.77814 304.03125 346.29376L304.03125 346.21564ZM305.125 346.35626Q305.125 347.40314 305.60938 348.04376Q306.10938 348.6844 306.92188 348.6844Q307.75 348.6844 308.23438 348.04376Q308.71875 347.3875 308.71875 346.21564Q308.71875 345.1844 308.21875 344.54376Q307.73438 343.8875 306.90625 343.8875Q306.10938 343.8875 305.60938 344.52814Q305.125 345.15314 305.125 346.35626ZM316.6875 346.35626Q316.6875 347.8094 316.01562 348.7Q315.35938 349.575 314.23438 349.575Q313.03125 349.575 312.375 348.71564L312.3125 349.45L311.32812 349.45L311.32812 340.45L312.40625 340.45L312.40625 343.8094Q313.0625 342.9969 314.21875 342.9969Q315.375 342.9969 316.03125 343.8719Q316.6875 344.73126 316.6875 346.2625L316.6875 346.35626ZM315.60938 346.23126Q315.60938 345.1219 315.17188 344.52814Q314.75 343.91876 313.95312 343.91876Q312.875 343.91876 312.40625 344.90314L312.40625 347.65314Q312.90625 348.65314 313.95312 348.65314Q314.73438 348.65314 315.17188 348.04376Q315.60938 347.4344 315.60938 346.23126ZM319.4375 343.10626L319.4375 350.1844Q319.4375 352.0125 317.78125 352.0125Q317.42188 352.0125 317.125 351.90314L317.125 351.04376Q317.3125 351.09064 317.60938 351.09064Q317.96875 351.09064 318.15625 350.8875Q318.35938 350.7 318.35938 350.2L318.35938 343.10626L319.4375 343.10626ZM318.25 341.4344Q318.25 341.16876 318.40625 340.98126Q318.5625 340.79376 318.875 340.79376Q319.1875 340.79376 319.34375 340.98126Q319.51562 341.16876 319.51562 341.4344Q319.51562 341.6844 319.34375 341.8719Q319.1875 342.04376 318.875 342.04376Q318.5625 342.04376 318.40625 341.8719Q318.25 341.6844 318.25 341.4344ZM323.95312 349.575Q322.65625 349.575 321.84375 348.73126Q321.04688 347.8719 321.04688 346.45L321.04688 346.2625Q321.04688 345.3094 321.40625 344.575Q321.76562 343.825 322.40625 343.41876Q323.0625 342.9969 323.8125 342.9969Q325.04688 342.9969 325.73438 343.8094Q326.42188 344.6219 326.42188 346.1375L326.42188 346.59064L322.125 346.59064Q322.15625 347.52814 322.67188 348.10626Q323.20312 348.6844 324.01562 348.6844Q324.57812 348.6844 324.96875 348.45Q325.375 348.21564 325.6875 347.825L326.34375 348.34064Q325.54688 349.575 323.95312 349.575ZM323.8125 343.8875Q323.15625 343.8875 322.70312 344.3719Q322.26562 344.84064 322.17188 345.7L325.34375 345.7L325.34375 345.6219Q325.29688 344.79376 324.89062 344.34064Q324.5 343.8875 323.8125 343.8875ZM328.79688 341.575L328.79688 343.10626L329.96875 343.10626L329.96875 343.95L328.79688 343.95L328.79688 347.8719Q328.79688 348.2625 328.95312 348.45Q329.10938 348.6375 329.48438 348.6375Q329.67188 348.6375 330.0 348.575L330.0 349.45Q329.57812 349.575 329.17188 349.575Q328.45312 349.575 328.07812 349.1375Q327.70312 348.6844 327.70312 347.8719L327.70312 343.95L326.54688 343.95L326.54688 343.10626L327.70312 343.10626L327.70312 341.575L328.79688 341.575ZM331.03125 346.21564Q331.03125 345.29376 331.39062 344.54376Q331.76562 343.79376 332.42188 343.40314Q333.07812 342.9969 333.90625 342.9969Q335.20312 342.9969 336.0 343.8875Q336.8125 344.77814 336.8125 346.27814L336.8125 346.35626Q336.8125 347.27814 336.45312 348.0125Q336.09375 348.7469 335.4375 349.16876Q334.78125 349.575 333.92188 349.575Q332.64062 349.575 331.82812 348.6844Q331.03125 347.77814 331.03125 346.29376L331.03125 346.21564ZM332.125 346.35626Q332.125 347.40314 332.60938 348.04376Q333.10938 348.6844 333.92188 348.6844Q334.75 348.6844 335.23438 348.04376Q335.71875 347.3875 335.71875 346.21564Q335.71875 345.1844 335.21875 344.54376Q334.73438 343.8875 333.90625 343.8875Q333.10938 343.8875 332.60938 344.52814Q332.125 345.15314 332.125 346.35626ZM342.01562 347.7625Q342.01562 347.325 341.67188 347.09064Q341.34375 346.84064 340.51562 346.66876Q339.70312 346.4969 339.21875 346.2469Q338.73438 345.9969 338.5 345.66876Q338.28125 345.325 338.28125 344.85626Q338.28125 344.075 338.9375 343.54376Q339.59375 342.9969 340.625 342.9969Q341.70312 342.9969 342.35938 343.5594Q343.03125 344.10626 343.03125 344.96564L341.95312 344.96564Q341.95312 344.52814 341.5625 344.21564Q341.1875 343.8875 340.625 343.8875Q340.03125 343.8875 339.6875 344.15314Q339.35938 344.40314 339.35938 344.8094Q339.35938 345.2 339.67188 345.40314Q339.98438 345.60626 340.79688 345.79376Q341.60938 345.96564 342.10938 346.21564Q342.60938 346.46564 342.84375 346.825Q343.09375 347.1844 343.09375 347.6844Q343.09375 348.54376 342.40625 349.0594Q341.73438 349.575 340.65625 349.575Q339.89062 349.575 339.29688 349.3094Q338.71875 349.02814 338.39062 348.54376Q338.0625 348.0594 338.0625 347.4969L339.14062 347.4969Q339.17188 348.04376 339.57812 348.3719Q339.98438 348.6844 340.65625 348.6844Q341.26562 348.6844 341.64062 348.4344Q342.01562 348.1844 342.01562 347.7625ZM349.95312 349.575Q348.65625 349.575 347.84375 348.73126Q347.04688 347.8719 347.04688 346.45L347.04688 346.2625Q347.04688 345.3094 347.40625 344.575Q347.76562 343.825 348.40625 343.41876Q349.0625 342.9969 349.8125 342.9969Q351.04688 342.9969 351.73438 343.8094Q352.42188 344.6219 352.42188 346.1375L352.42188 346.59064L348.125 346.59064Q348.15625 347.52814 348.67188 348.10626Q349.20312 348.6844 350.01562 348.6844Q350.57812 348.6844 350.96875 348.45Q351.375 348.21564 351.6875 347.825L352.34375 348.34064Q351.54688 349.575 349.95312 349.575ZM349.8125 343.8875Q349.15625 343.8875 348.70312 344.3719Q348.26562 344.84064 348.17188 345.7L351.34375 345.7L351.34375 345.6219Q351.29688 344.79376 350.89062 344.34064Q350.5 343.8875 349.8125 343.8875ZM354.34375 343.10626L354.375 343.90314Q355.10938 342.9969 356.28125 342.9969Q358.29688 342.9969 358.3125 345.2625L358.3125 349.45L357.21875 349.45L357.21875 345.2469Q357.21875 344.575 356.90625 344.2469Q356.60938 343.91876 355.95312 343.91876Q355.42188 343.91876 355.01562 344.2Q354.625 344.48126 354.40625 344.9344L354.40625 349.45L353.32812 349.45L353.32812 343.10626L354.34375 343.10626ZM370.04688 345.46564Q370.04688 346.71564 369.625 347.65314Q369.20312 348.575 368.42188 349.075Q367.65625 349.575 366.625 349.575Q365.625 349.575 364.84375 349.075Q364.0625 348.575 363.625 347.66876Q363.20312 346.7469 363.1875 345.52814L363.1875 344.91876Q363.1875 343.6844 363.60938 342.7469Q364.04688 341.8094 364.82812 341.3094Q365.60938 340.79376 366.625 340.79376Q367.64062 340.79376 368.42188 341.29376Q369.20312 341.79376 369.625 342.73126Q370.04688 343.66876 370.04688 344.91876L370.04688 345.46564ZM368.9375 344.90314Q368.9375 343.3875 368.32812 342.575Q367.71875 341.7625 366.625 341.7625Q365.54688 341.7625 364.9375 342.575Q364.32812 343.3875 364.3125 344.825L364.3125 345.46564Q364.3125 346.9344 364.92188 347.77814Q365.54688 348.60626 366.625 348.60626Q367.71875 348.60626 368.3125 347.825Q368.92188 347.02814 368.9375 345.54376L368.9375 344.90314ZM373.85938 348.6844Q374.4375 348.6844 374.875 348.34064Q375.3125 347.98126 375.35938 347.45L376.39062 347.45Q376.35938 347.9969 376.0 348.4969Q375.65625 348.98126 375.07812 349.27814Q374.51562 349.575 373.85938 349.575Q372.5625 349.575 371.79688 348.71564Q371.04688 347.84064 371.04688 346.34064L371.04688 346.15314Q371.04688 345.23126 371.375 344.5125Q371.71875 343.79376 372.34375 343.40314Q372.98438 342.9969 373.85938 342.9969Q374.92188 342.9969 375.625 343.6375Q376.34375 344.2625 376.39062 345.29376L375.35938 345.29376Q375.3125 344.66876 374.89062 344.27814Q374.46875 343.8875 373.85938 343.8875Q373.03125 343.8875 372.57812 344.48126Q372.125 345.075 372.125 346.2L372.125 346.40314Q372.125 347.4969 372.57812 348.09064Q373.03125 348.6844 373.85938 348.6844ZM378.79688 341.575L378.79688 343.10626L379.96875 343.10626L379.96875 343.95L378.79688 343.95L378.79688 347.8719Q378.79688 348.2625 378.95312 348.45Q379.10938 348.6375 379.48438 348.6375Q379.67188 348.6375 380.0 348.575L380.0 349.45Q379.57812 349.575 379.17188 349.575Q378.45312 349.575 378.07812 349.1375Q377.70312 348.6844 377.70312 347.8719L377.70312 343.95L376.54688 343.95L376.54688 343.10626L377.70312 343.10626L377.70312 341.575L378.79688 341.575ZM384.39062 344.075Q384.14062 344.04376 383.85938 344.04376Q382.78125 344.04376 382.40625 344.95L382.40625 349.45L381.32812 349.45L381.32812 343.10626L382.375 343.10626L382.39062 343.84064Q382.92188 342.9969 383.90625 342.9969Q384.21875 342.9969 384.39062 343.075L384.39062 344.075ZM387.95312 349.575Q386.65625 349.575 385.84375 348.73126Q385.04688 347.8719 385.04688 346.45L385.04688 346.2625Q385.04688 345.3094 385.40625 344.575Q385.76562 343.825 386.40625 343.41876Q387.0625 342.9969 387.8125 342.9969Q389.04688 342.9969 389.73438 343.8094Q390.42188 344.6219 390.42188 346.1375L390.42188 346.59064L386.125 346.59064Q386.15625 347.52814 386.67188 348.10626Q387.20312 348.6844 388.01562 348.6844Q388.57812 348.6844 388.96875 348.45Q389.375 348.21564 389.6875 347.825L390.34375 348.34064Q389.54688 349.575 387.95312 349.575ZM387.8125 343.8875Q387.15625 343.8875 386.70312 344.3719Q386.26562 344.84064 386.17188 345.7L389.34375 345.7L389.34375 345.6219Q389.29688 344.79376 388.89062 344.34064Q388.5 343.8875 387.8125 343.8875ZM393.95312 349.575Q392.65625 349.575 391.84375 348.73126Q391.04688 347.8719 391.04688 346.45L391.04688 346.2625Q391.04688 345.3094 391.40625 344.575Q391.76562 343.825 392.40625 343.41876Q393.0625 342.9969 393.8125 342.9969Q395.04688 342.9969 395.73438 343.8094Q396.42188 344.6219 396.42188 346.1375L396.42188 346.59064L392.125 346.59064Q392.15625 347.52814 392.67188 348.10626Q393.20312 348.6844 394.01562 348.6844Q394.57812 348.6844 394.96875 348.45Q395.375 348.21564 395.6875 347.825L396.34375 348.34064Q395.54688 349.575 393.95312 349.575ZM393.8125 343.8875Q393.15625 343.8875 392.70312 344.3719Q392.26562 344.84064 392.17188 345.7L395.34375 345.7L395.34375 345.6219Q395.29688 344.79376 394.89062 344.34064Q394.5 343.8875 393.8125 343.8875Z" fill-rule="nonzero"/><path fill="#424242" d="M27.846888 257.91772Q29.190638 258.07397 29.940638 258.91772Q30.675013 259.76147 30.675013 261.1521Q30.675013 262.66772 29.596888 263.57397Q28.503138 264.48022 26.675013 264.48022L25.862513 264.48022Q24.675013 264.48022 23.768763 264.05835Q22.862513 263.63647 22.378138 262.85522Q21.893763 262.07397 21.893763 261.05835Q21.893763 259.69897 22.659388 258.88647Q23.425013 258.05835 24.753138 257.91772L24.753138 259.04272Q23.737513 259.19897 23.284388 259.68335Q22.831263 260.16772 22.831263 261.05835Q22.831263 262.13647 23.628138 262.74585Q24.425013 263.35522 25.893763 263.35522L26.721888 263.35522Q28.112513 263.35522 28.940638 262.7771Q29.753138 262.19897 29.753138 261.1521Q29.753138 260.2146 29.331263 259.7146Q28.893763 259.2146 27.846888 259.04272L27.846888 257.91772ZM27.315638 256.6521Q26.393763 256.6521 25.643763 256.29272Q24.893763 255.91771 24.503138 255.26146Q24.096888 254.60521 24.096888 253.77708Q24.096888 252.48021 24.987513 251.68333Q25.878138 250.87083 27.378138 250.87083L27.456263 250.87083Q28.378138 250.87083 29.112513 251.23021Q29.846888 251.58958 30.268763 252.24583Q30.675013 252.90208 30.675013 253.76146Q30.675013 255.04271 29.784388 255.85521Q28.878138 256.6521 27.393763 256.6521L27.315638 256.6521ZM27.456263 255.55833Q28.503138 255.55833 29.143763 255.07396Q29.784388 254.57396 29.784388 253.76146Q29.784388 252.93333 29.143763 252.44896Q28.487513 251.96458 27.315638 251.96458Q26.284388 251.96458 25.643763 252.46458Q24.987513 252.94896 24.987513 253.77708Q24.987513 254.57396 25.628138 255.07396Q26.253138 255.55833 27.456263 255.55833ZM21.550013 253.32396L21.550013 252.01146L23.268763 253.58958L23.268763 254.46458L21.550013 253.32396ZM24.206263 248.33958L24.909388 248.30833Q24.096888 247.62083 24.096888 246.43333Q24.096888 245.10521 25.112513 244.62083Q24.659388 244.30833 24.378138 243.80833Q24.096888 243.29271 24.096888 242.60521Q24.096888 240.51146 26.300013 240.48021L30.550013 240.48021L30.550013 241.55833L26.362513 241.55833Q25.690638 241.55833 25.362513 241.87083Q25.018763 242.18333 25.018763 242.91771Q25.018763 243.52708 25.378138 243.93333Q25.737513 244.32396 26.346888 244.38646L30.550013 244.38646L30.550013 245.46458L26.393763 245.46458Q25.018763 245.46458 25.018763 246.82396Q25.018763 247.88646 25.925013 248.27708L30.550013 248.27708L30.550013 249.37083L24.206263 249.37083L24.206263 248.33958ZM27.456263 233.01146Q28.893763 233.01146 29.784388 233.66771Q30.675013 234.32396 30.675013 235.46458Q30.675013 236.62083 29.940638 237.27708L32.98751 237.27708L32.98751 238.35521L24.206263 238.35521L24.206263 237.37083L24.909388 237.32396Q24.096888 236.65208 24.096888 235.48021Q24.096888 234.33958 24.956263 233.68333Q25.815638 233.01146 27.346888 233.01146L27.456263 233.01146ZM27.331263 234.08958Q26.253138 234.08958 25.643763 234.55833Q25.018763 235.01146 25.018763 235.80833Q25.018763 236.79271 25.878138 237.27708L28.909388 237.27708Q29.784388 236.79271 29.784388 235.79271Q29.784388 235.01146 29.175013 234.55833Q28.550013 234.08958 27.331263 234.08958ZM29.925013 227.44896Q30.675013 228.07396 30.675013 229.30833Q30.675013 230.32396 30.081263 230.85521Q29.487513 231.38646 28.331263 231.38646L24.206263 231.38646L24.206263 230.30833L28.300013 230.30833Q29.753138 230.30833 29.753138 229.13646Q29.753138 227.88646 28.815638 227.48021L24.206263 227.48021L24.206263 226.38646L30.550013 226.38646L30.550013 227.41771L29.925013 227.44896ZM22.675013 222.88646L24.206263 222.88646L24.206263 221.71458L25.050013 221.71458L25.050013 222.88646L28.971888 222.88646Q29.362513 222.88646 29.550013 222.73021Q29.737513 222.57396 29.737513 222.19896Q29.737513 222.01146 29.675013 221.68333L30.550013 221.68333Q30.675013 222.10521 30.675013 222.51146Q30.675013 223.23021 30.237513 223.60521Q29.784388 223.98021 28.971888 223.98021L25.050013 223.98021L25.050013 225.13646L24.206263 225.13646L24.206263 223.98021L22.675013 223.98021L22.675013 222.88646ZM27.315638 220.65208Q26.393763 220.65208 25.643763 220.29271Q24.893763 219.91771 24.503138 219.26146Q24.096888 218.60521 24.096888 217.77708Q24.096888 216.48021 24.987513 215.68333Q25.878138 214.87083 27.378138 214.87083L27.456263 214.87083Q28.378138 214.87083 29.112513 215.23021Q29.846888 215.58958 30.268763 216.24583Q30.675013 216.90208 30.675013 217.76146Q30.675013 219.04271 29.784388 219.85521Q28.878138 220.65208 27.393763 220.65208L27.315638 220.65208ZM27.456263 219.55833Q28.503138 219.55833 29.143763 219.07396Q29.784388 218.57396 29.784388 217.76146Q29.784388 216.93333 29.143763 216.44896Q28.487513 215.96458 27.315638 215.96458Q26.284388 215.96458 25.643763 216.46458Q24.987513 216.94896 24.987513 217.77708Q24.987513 218.57396 25.628138 219.07396Q26.253138 219.55833 27.456263 219.55833ZM27.331263 210.62083Q25.862513 210.62083 24.987513 209.93333Q24.096888 209.24583 24.096888 208.12083Q24.096888 207.01146 24.846888 206.35521L21.550013 206.35521L21.550013 205.27708L30.550013 205.27708L30.550013 206.27708L29.862513 206.32396Q30.675013 206.98021 30.675013 208.13646Q30.675013 209.23021 29.768763 209.93333Q28.862513 210.62083 27.409388 210.62083L27.331263 210.62083ZM27.456263 209.54271Q28.534388 209.54271 29.143763 209.10521Q29.753138 208.65208 29.753138 207.87083Q29.753138 206.83958 28.815638 206.35521L25.909388 206.35521Q25.018763 206.83958 25.018763 207.85521Q25.018763 208.65208 25.628138 209.10521Q26.237513 209.54271 27.456263 209.54271ZM30.675013 200.73021Q30.675013 202.02708 29.831263 202.83958Q28.971888 203.63646 27.550013 203.63646L27.362513 203.63646Q26.409388 203.63646 25.675013 203.27708Q24.925013 202.91771 24.518763 202.27708Q24.096888 201.62083 24.096888 200.87083Q24.096888 199.63646 24.909388 198.94896Q25.721888 198.26146 27.237513 198.26146L27.690638 198.26146L27.690638 202.55833Q28.628138 202.52708 29.206263 202.01146Q29.784388 201.48021 29.784388 200.66771Q29.784388 200.10521 29.550013 199.71458Q29.315638 199.30833 28.925013 198.99583L29.440638 198.33958Q30.675013 199.13646 30.675013 200.73021ZM24.987513 200.87083Q24.987513 201.52708 25.471888 201.98021Q25.940638 202.41771 26.800013 202.51146L26.800013 199.33958L26.721888 199.33958Q25.893763 199.38646 25.440638 199.79271Q24.987513 200.18333 24.987513 200.87083ZM27.315638 194.65208Q26.393763 194.65208 25.643763 194.29271Q24.893763 193.91771 24.503138 193.26146Q24.096888 192.60521 24.096888 191.77708Q24.096888 190.48021 24.987513 189.68333Q25.878138 188.87083 27.378138 188.87083L27.456263 188.87083Q28.378138 188.87083 29.112513 189.23021Q29.846888 189.58958 30.268763 190.24583Q30.675013 190.90208 30.675013 191.76146Q30.675013 193.04271 29.784388 193.85521Q28.878138 194.65208 27.393763 194.65208L27.315638 194.65208ZM27.456263 193.55833Q28.503138 193.55833 29.143763 193.07396Q29.784388 192.57396 29.784388 191.76146Q29.784388 190.93333 29.143763 190.44896Q28.487513 189.96458 27.315638 189.96458Q26.284388 189.96458 25.643763 190.46458Q24.987513 190.94896 24.987513 191.77708Q24.987513 192.57396 25.628138 193.07396Q26.253138 193.55833 27.456263 193.55833ZM29.784388 184.82396Q29.784388 184.24583 29.440638 183.80833Q29.081263 183.37083 28.550013 183.32396L28.550013 182.29271Q29.096888 182.32396 29.596888 182.68333Q30.081263 183.02708 30.378138 183.60521Q30.675013 184.16771 30.675013 184.82396Q30.675013 186.12083 29.815638 186.88646Q28.940638 187.63646 27.440638 187.63646L27.253138 187.63646Q26.331263 187.63646 25.612513 187.30833Q24.893763 186.96458 24.503138 186.33958Q24.096888 185.69896 24.096888 184.82396Q24.096888 183.76146 24.737513 183.05833Q25.362513 182.33958 26.393763 182.29271L26.393763 183.32396Q25.768763 183.37083 25.378138 183.79271Q24.987513 184.21458 24.987513 184.82396Q24.987513 185.65208 25.581263 186.10521Q26.175013 186.55833 27.300013 186.55833L27.503138 186.55833Q28.596888 186.55833 29.190638 186.10521Q29.784388 185.65208 29.784388 184.82396ZM30.550013 180.18333L30.550013 181.26146L21.550013 181.26146L21.550013 180.18333L30.550013 180.18333ZM29.925013 174.44896Q30.675013 175.07396 30.675013 176.30833Q30.675013 177.32396 30.081263 177.85521Q29.487513 178.38646 28.331263 178.38646L24.206263 178.38646L24.206263 177.30833L28.300013 177.30833Q29.753138 177.30833 29.753138 176.13646Q29.753138 174.88646 28.815638 174.48021L24.206263 174.48021L24.206263 173.38646L30.550013 173.38646L30.550013 174.41771L29.925013 174.44896ZM28.862513 167.66771Q28.425013 167.66771 28.190638 168.01146Q27.940638 168.33958 27.768763 169.16771Q27.596888 169.98021 27.346888 170.46458Q27.096888 170.94896 26.768763 171.18333Q26.425013 171.40208 25.956263 171.40208Q25.175013 171.40208 24.643763 170.74583Q24.096888 170.08958 24.096888 169.05833Q24.096888 167.98021 24.659388 167.32396Q25.206263 166.65208 26.065638 166.65208L26.065638 167.73021Q25.628138 167.73021 25.315638 168.12083Q24.987513 168.49583 24.987513 169.05833Q24.987513 169.65208 25.253138 169.99583Q25.503138 170.32396 25.909388 170.32396Q26.300013 170.32396 26.503138 170.01146Q26.706263 169.69896 26.893763 168.88646Q27.065638 168.07396 27.315638 167.57396Q27.565638 167.07396 27.925013 166.83958Q28.284388 166.58958 28.784388 166.58958Q29.643763 166.58958 30.159388 167.27708Q30.675013 167.94896 30.675013 169.02708Q30.675013 169.79271 30.409388 170.38646Q30.128138 170.96458 29.643763 171.29271Q29.159388 171.62083 28.596888 171.62083L28.596888 170.54271Q29.143763 170.51146 29.471888 170.10521Q29.784388 169.69896 29.784388 169.02708Q29.784388 168.41771 29.534388 168.04271Q29.284388 167.66771 28.862513 167.66771ZM30.550013 164.18333L30.550013 165.26146L24.206263 165.26146L24.206263 164.18333L30.550013 164.18333ZM22.534388 165.35521Q22.268763 165.35521 22.081263 165.19896Q21.893763 165.02708 21.893763 164.71458Q21.893763 164.40208 22.081263 164.24583Q22.268763 164.07396 22.534388 164.07396Q22.784388 164.07396 22.971888 164.24583Q23.143763 164.40208 23.143763 164.71458Q23.143763 165.02708 22.971888 165.19896Q22.784388 165.35521 22.534388 165.35521ZM27.315638 162.65208Q26.393763 162.65208 25.643763 162.29271Q24.893763 161.91771 24.503138 161.26146Q24.096888 160.60521 24.096888 159.77708Q24.096888 158.48021 24.987513 157.68333Q25.878138 156.87083 27.378138 156.87083L27.456263 156.87083Q28.378138 156.87083 29.112513 157.23021Q29.846888 157.58958 30.268763 158.24583Q30.675013 158.90208 30.675013 159.76146Q30.675013 161.04271 29.784388 161.85521Q28.878138 162.65208 27.393763 162.65208L27.315638 162.65208ZM27.456263 161.55833Q28.503138 161.55833 29.143763 161.07396Q29.784388 160.57396 29.784388 159.76146Q29.784388 158.93333 29.143763 158.44896Q28.487513 157.96458 27.315638 157.96458Q26.284388 157.96458 25.643763 158.46458Q24.987513 158.94896 24.987513 159.77708Q24.987513 160.57396 25.628138 161.07396Q26.253138 161.55833 27.456263 161.55833ZM24.206263 154.33958L25.003138 154.30833Q24.096888 153.57396 24.096888 152.40208Q24.096888 150.38646 26.362513 150.37083L30.550013 150.37083L30.550013 151.46458L26.346888 151.46458Q25.675013 151.46458 25.346888 151.77708Q25.018763 152.07396 25.018763 152.73021Q25.018763 153.26146 25.300013 153.66771Q25.581263 154.05833 26.034388 154.27708L30.550013 154.27708L30.550013 155.35521L24.206263 155.35521L24.206263 154.33958ZM30.675013 145.73021Q30.675013 147.02708 29.831263 147.83958Q28.971888 148.63646 27.550013 148.63646L27.362513 148.63646Q26.409388 148.63646 25.675013 148.27708Q24.925013 147.91771 24.518763 147.27708Q24.096888 146.62083 24.096888 145.87083Q24.096888 144.63646 24.909388 143.94896Q25.721888 143.26146 27.237513 143.26146L27.690638 143.26146L27.690638 147.55833Q28.628138 147.52708 29.206263 147.01146Q29.784388 146.48021 29.784388 145.66771Q29.784388 145.10521 29.550013 144.71458Q29.315638 144.30833 28.925013 143.99583L29.440638 143.33958Q30.675013 144.13646 30.675013 145.73021ZM24.987513 145.87083Q24.987513 146.52708 25.471888 146.98021Q25.940638 147.41771 26.800013 147.51146L26.800013 144.33958L26.721888 144.33958Q25.893763 144.38646 25.440638 144.79271Q24.987513 145.18333 24.987513 145.87083ZM28.862513 138.66771Q28.425013 138.66771 28.190638 139.01146Q27.940638 139.33958 27.768763 140.16771Q27.596888 140.98021 27.346888 141.46458Q27.096888 141.94896 26.768763 142.18333Q26.425013 142.40208 25.956263 142.40208Q25.175013 142.40208 24.643763 141.74583Q24.096888 141.08958 24.096888 140.05833Q24.096888 138.98021 24.659388 138.32396Q25.206263 137.65208 26.065638 137.65208L26.065638 138.73021Q25.628138 138.73021 25.315638 139.12083Q24.987513 139.49583 24.987513 140.05833Q24.987513 140.65208 25.253138 140.99583Q25.503138 141.32396 25.909388 141.32396Q26.300013 141.32396 26.503138 141.01146Q26.706263 140.69896 26.893763 139.88646Q27.065638 139.07396 27.315638 138.57396Q27.565638 138.07396 27.925013 137.83958Q28.284388 137.58958 28.784388 137.58958Q29.643763 137.58958 30.159388 138.27708Q30.675013 138.94896 30.675013 140.02708Q30.675013 140.79271 30.409388 141.38646Q30.128138 141.96458 29.643763 142.29271Q29.159388 142.62083 28.596888 142.62083L28.596888 141.54271Q29.143763 141.51146 29.471888 141.10521Q29.784388 140.69896 29.784388 140.02708Q29.784388 139.41771 29.534388 139.04271Q29.284388 138.66771 28.862513 138.66771ZM27.081263 133.40208Q25.768763 133.40208 24.550013 133.05833Q23.331263 132.69896 22.331263 131.99583Q21.331263 131.29271 20.925013 130.52708L21.643763 130.30833Q22.300013 131.16771 23.643763 131.71458Q24.987513 132.26146 26.659388 132.30833L27.159388 132.32396Q29.425013 132.32396 31.081263 131.49583Q32.08126 130.99583 32.64376 130.30833L33.30001 130.52708Q32.878136 131.30833 31.846888 132.02708Q29.862513 133.40208 27.081263 133.40208ZM30.550013 128.82396L25.050013 128.82396L25.050013 129.82396L24.206263 129.82396L24.206263 128.82396L23.565638 128.82396Q22.534388 128.82396 21.987513 128.29271Q21.425013 127.745834 21.425013 126.745834Q21.425013 126.370834 21.518763 125.995834L22.409388 126.058334Q22.346888 126.339584 22.346888 126.63646Q22.346888 127.16771 22.659388 127.464584Q22.971888 127.745834 23.534388 127.745834L24.206263 127.745834L24.206263 126.38646L25.050013 126.38646L25.050013 127.745834L30.550013 127.745834L30.550013 128.82396ZM27.456263 120.01146Q28.893763 120.01146 29.784388 120.66771Q30.675013 121.32396 30.675013 122.464584Q30.675013 123.620834 29.940638 124.277084L32.98751 124.277084L32.98751 125.35521L24.206263 125.35521L24.206263 124.370834L24.909388 124.32396Q24.096888 123.652084 24.096888 122.48021Q24.096888 121.339584 24.956263 120.683334Q25.815638 120.01146 27.346888 120.01146L27.456263 120.01146ZM27.331263 121.089584Q26.253138 121.089584 25.643763 121.558334Q25.018763 122.01146 25.018763 122.808334Q25.018763 123.79271 25.878138 124.277084L28.909388 124.277084Q29.784388 123.79271 29.784388 122.79271Q29.784388 122.01146 29.175013 121.558334Q28.550013 121.089584 27.331263 121.089584ZM28.862513 114.66771Q28.425013 114.66771 28.190638 115.01146Q27.940638 115.339584 27.768763 116.16771Q27.596888 116.98021 27.346888 117.464584Q27.096888 117.94896 26.768763 118.183334Q26.425013 118.402084 25.956263 118.402084Q25.175013 118.402084 24.643763 117.745834Q24.096888 117.089584 24.096888 116.058334Q24.096888 114.98021 24.659388 114.32396Q25.206263 113.652084 26.065638 113.652084L26.065638 114.73021Q25.628138 114.73021 25.315638 115.120834Q24.987513 115.495834 24.987513 116.058334Q24.987513 116.652084 25.253138 116.995834Q25.503138 117.32396 25.909388 117.32396Q26.300013 117.32396 26.503138 117.01146Q26.706263 116.69896 26.893763 115.88646Q27.065638 115.07396 27.315638 114.57396Q27.565638 114.07396 27.925013 113.839584Q28.284388 113.589584 28.784388 113.589584Q29.643763 113.589584 30.159388 114.277084Q30.675013 114.94896 30.675013 116.027084Q30.675013 116.79271 30.409388 117.38646Q30.128138 117.964584 29.643763 118.29271Q29.159388 118.620834 28.596888 118.620834L28.596888 117.54271Q29.143763 117.51146 29.471888 117.10521Q29.784388 116.69896 29.784388 116.027084Q29.784388 115.41771 29.534388 115.04271Q29.284388 114.66771 28.862513 114.66771ZM27.143763 109.85521Q28.456263 109.85521 29.659388 110.19896Q30.846888 110.54271 31.862513 111.26146Q32.878136 111.964584 33.30001 112.73021L32.64376 112.964584Q31.956263 112.058334 30.503138 111.51146Q29.034388 110.964584 27.268763 110.94896L27.081263 110.94896Q25.846888 110.94896 24.784388 111.214584Q23.721888 111.464584 22.893763 111.933334Q22.050013 112.38646 21.581263 112.964584L20.925013 112.73021Q21.346888 111.964584 22.346888 111.26146Q23.346888 110.558334 24.565638 110.214584Q25.768763 109.85521 27.143763 109.85521Z" fill-rule="nonzero"/><path fill="#757575" d="M71.84688 302.95L66.25313 302.95L66.25313 302.16876L69.20625 298.8875Q69.8625 298.1375 70.1125 297.6844Q70.3625 297.21564 70.3625 296.71564Q70.3625 296.04376 69.95625 295.6219Q69.56563 295.1844 68.87813 295.1844Q68.08125 295.1844 67.62813 295.65314Q67.175 296.10626 67.175 296.9344L66.09688 296.9344Q66.09688 295.7469 66.84688 295.02814Q67.6125 294.29376 68.87813 294.29376Q70.08125 294.29376 70.76875 294.91876Q71.45625 295.54376 71.45625 296.59064Q71.45625 297.84064 69.84688 299.59064L67.56563 302.0594L71.84688 302.0594L71.84688 302.95ZM78.6125 299.3094Q78.6125 301.21564 77.95625 302.15314Q77.31563 303.075 75.925 303.075Q74.56563 303.075 73.90938 302.16876Q73.25313 301.2625 73.22188 299.45L73.22188 298.0125Q73.22188 296.1219 73.8625 295.21564Q74.51875 294.29376 75.90938 294.29376Q77.28438 294.29376 77.94063 295.1844Q78.59688 296.0594 78.6125 297.90314L78.6125 299.3094ZM77.51875 297.825Q77.51875 296.45 77.12813 295.825Q76.75313 295.1844 75.90938 295.1844Q75.08125 295.1844 74.69063 295.825Q74.31563 296.45 74.31563 297.7469L74.31563 299.48126Q74.31563 300.85626 74.70625 301.52814Q75.1125 302.1844 75.925 302.1844Q76.72188 302.1844 77.1125 301.5594Q77.50313 300.9344 77.51875 299.60626L77.51875 297.825Z" fill-rule="nonzero"/><path fill="#757575" d="M70.83125 258.26935L72.01875 258.26935L72.01875 259.14435L70.83125 259.14435L70.83125 261.12872L69.75313 261.12872L69.75313 259.14435L65.8625 259.14435L65.8625 258.50372L69.675 252.59747L70.83125 252.59747L70.83125 258.26935ZM67.09688 258.26935L69.75313 258.26935L69.75313 254.08185L69.6125 254.31622L67.09688 258.26935ZM78.6125 257.4881Q78.6125 259.39435 77.95625 260.33185Q77.31563 261.25372 75.925 261.25372Q74.56563 261.25372 73.90938 260.34747Q73.25313 259.44122 73.22188 257.62872L73.22188 256.19122Q73.22188 254.3006 73.8625 253.39435Q74.51875 252.47247 75.90938 252.47247Q77.28438 252.47247 77.94063 253.3631Q78.59688 254.2381 78.6125 256.08185L78.6125 257.4881ZM77.51875 256.00372Q77.51875 254.62872 77.12813 254.00372Q76.75313 253.3631 75.90938 253.3631Q75.08125 253.3631 74.69063 254.00372Q74.31563 254.62872 74.31563 255.9256L74.31563 257.65997Q74.31563 259.03497 74.70625 259.70685Q75.1125 260.3631 75.925 260.3631Q76.72188 260.3631 77.1125 259.7381Q77.50313 259.1131 77.51875 257.78497L77.51875 256.00372Z" fill-rule="nonzero"/><path fill="#757575" d="M70.51875 228.13358L70.51875 229.03983L70.31563 229.03983Q69.05 229.07108 68.3 229.80545Q67.55 230.5242 67.425 231.8367Q68.1125 231.07108 69.26875 231.07108Q70.37813 231.07108 71.05 231.85233Q71.72188 232.63358 71.72188 233.88358Q71.72188 235.19608 71.00313 235.99295Q70.28438 236.78983 69.06563 236.78983Q67.84688 236.78983 67.08125 235.85233Q66.33125 234.8992 66.33125 233.41483L66.33125 233.00858Q66.33125 230.6492 67.33125 229.3992Q68.33125 228.1492 70.31563 228.13358L70.51875 228.13358ZM69.09688 231.97733Q68.53438 231.97733 68.06563 232.30545Q67.59688 232.63358 67.40938 233.1492L67.40938 233.53983Q67.40938 234.60233 67.87813 235.24295Q68.3625 235.88358 69.06563 235.88358Q69.8 235.88358 70.22188 235.35233Q70.64375 234.80545 70.64375 233.93045Q70.64375 233.05545 70.22188 232.5242Q69.8 231.97733 69.09688 231.97733ZM78.6125 233.0242Q78.6125 234.93045 77.95625 235.86795Q77.31563 236.78983 75.925 236.78983Q74.56563 236.78983 73.90938 235.88358Q73.25313 234.97733 73.22188 233.16483L73.22188 231.72733Q73.22188 229.8367 73.8625 228.93045Q74.51875 228.00858 75.90938 228.00858Q77.28438 228.00858 77.94063 228.8992Q78.59688 229.7742 78.6125 231.61795L78.6125 233.0242ZM77.51875 231.53983Q77.51875 230.16483 77.12813 229.53983Q76.75313 228.8992 75.90938 228.8992Q75.08125 228.8992 74.69063 229.53983Q74.31563 230.16483 74.31563 231.4617L74.31563 233.19608Q74.31563 234.57108 74.70625 235.24295Q75.1125 235.8992 75.925 235.8992Q76.72188 235.8992 77.1125 235.2742Q77.50313 234.6492 77.51875 233.32108L77.51875 231.53983Z" fill-rule="nonzero"/><path fill="#757575" d="M71.44063 212.99492Q71.44063 213.63554 71.09688 214.13554Q70.75313 214.63554 70.19063 214.9168Q70.84688 215.19804 71.2375 215.76054Q71.62813 216.30742 71.62813 217.01054Q71.62813 218.1043 70.87813 218.77617Q70.14375 219.43242 68.925 219.43242Q67.69063 219.43242 66.94063 218.77617Q66.20625 218.1043 66.20625 217.01054Q66.20625 216.30742 66.58125 215.76054Q66.95625 215.19804 67.62813 214.9168Q67.06563 214.63554 66.7375 214.13554Q66.40938 213.63554 66.40938 212.99492Q66.40938 211.9168 67.09688 211.2918Q67.78438 210.65117 68.925 210.65117Q70.05 210.65117 70.7375 211.2918Q71.44063 211.9168 71.44063 212.99492ZM70.55 216.9793Q70.55 216.26054 70.09688 215.82304Q69.64375 215.36992 68.90938 215.36992Q68.175 215.36992 67.72188 215.82304Q67.28438 216.26054 67.28438 216.99492Q67.28438 217.71367 67.72188 218.13554Q68.15938 218.5418 68.925 218.5418Q69.675 218.5418 70.1125 218.11992Q70.55 217.69804 70.55 216.9793ZM68.925 211.5418Q68.28438 211.5418 67.87813 211.94804Q67.4875 212.33867 67.4875 213.02617Q67.4875 213.6668 67.87813 214.07304Q68.26875 214.4793 68.90938 214.4793Q69.56563 214.4793 69.95625 214.07304Q70.34688 213.6668 70.34688 213.02617Q70.34688 212.36992 69.94063 211.96367Q69.53438 211.5418 68.925 211.5418ZM78.6125 215.6668Q78.6125 217.57304 77.95625 218.51054Q77.31563 219.43242 75.925 219.43242Q74.56563 219.43242 73.90938 218.52617Q73.25313 217.61992 73.22188 215.80742L73.22188 214.36992Q73.22188 212.4793 73.8625 211.57304Q74.51875 210.65117 75.90938 210.65117Q77.28438 210.65117 77.94063 211.5418Q78.59688 212.4168 78.6125 214.26054L78.6125 215.6668ZM77.51875 214.18242Q77.51875 212.80742 77.12813 212.18242Q76.75313 211.5418 75.90938 211.5418Q75.08125 211.5418 74.69063 212.18242Q74.31563 212.80742 74.31563 214.1043L74.31563 215.83867Q74.31563 217.21367 74.70625 217.88554Q75.1125 218.5418 75.925 218.5418Q76.72188 218.5418 77.1125 217.9168Q77.50313 217.2918 77.51875 215.96367L77.51875 214.18242Z" fill-rule="nonzero"/><path fill="#757575" d="M64.84688 164.02269L59.253124 164.02269L59.253124 163.24144L62.20625 159.96019Q62.8625 159.21019 63.1125 158.75706Q63.3625 158.28831 63.3625 157.78831Q63.3625 157.11644 62.95625 156.69456Q62.565624 156.25706 61.878124 156.25706Q61.08125 156.25706 60.628124 156.72581Q60.175 157.17894 60.175 158.00706L59.096874 158.00706Q59.096874 156.81956 59.846874 156.10081Q60.6125 155.36644 61.878124 155.36644Q63.08125 155.36644 63.76875 155.99144Q64.45625 156.61644 64.45625 157.66331Q64.45625 158.91331 62.846874 160.66331L60.565624 163.13206L64.84688 163.13206L64.84688 164.02269ZM71.6125 160.38206Q71.6125 162.28831 70.95625 163.22581Q70.31563 164.14769 68.925 164.14769Q67.56563 164.14769 66.90938 163.24144Q66.25313 162.33519 66.22188 160.52269L66.22188 159.08519Q66.22188 157.19456 66.8625 156.28831Q67.51875 155.36644 68.90938 155.36644Q70.28438 155.36644 70.94063 156.25706Q71.59688 157.13206 71.6125 158.97581L71.6125 160.38206ZM70.51875 158.89769Q70.51875 157.52269 70.12813 156.89769Q69.75313 156.25706 68.90938 156.25706Q68.08125 156.25706 67.69063 156.89769Q67.31563 157.52269 67.31563 158.81956L67.31563 160.55394Q67.31563 161.92894 67.70625 162.60081Q68.1125 163.25706 68.925 163.25706Q69.72188 163.25706 70.1125 162.63206Q70.50313 162.00706 70.51875 160.67894L70.51875 158.89769ZM78.6125 160.38206Q78.6125 162.28831 77.95625 163.22581Q77.31563 164.14769 75.925 164.14769Q74.56563 164.14769 73.90938 163.24144Q73.25313 162.33519 73.22188 160.52269L73.22188 159.08519Q73.22188 157.19456 73.8625 156.28831Q74.51875 155.36644 75.90938 155.36644Q77.28438 155.36644 77.94063 156.25706Q78.59688 157.13206 78.6125 158.97581L78.6125 160.38206ZM77.51875 158.89769Q77.51875 157.52269 77.12813 156.89769Q76.75313 156.25706 75.90938 156.25706Q75.08125 156.25706 74.69063 156.89769Q74.31563 157.52269 74.31563 158.81956L74.31563 160.55394Q74.31563 161.92894 74.70625 162.60081Q75.1125 163.25706 75.925 163.25706Q76.72188 163.25706 77.1125 162.63206Q77.50313 162.00706 77.51875 160.67894L77.51875 158.89769Z" fill-rule="nonzero"/><path fill="#757575" d="M63.83125 119.342026L65.01875 119.342026L65.01875 120.217026L63.83125 120.217026L63.83125 122.2014L62.753124 122.2014L62.753124 120.217026L58.8625 120.217026L58.8625 119.5764L62.675 113.67015L63.83125 113.67015L63.83125 119.342026ZM60.096874 119.342026L62.753124 119.342026L62.753124 115.154526L62.6125 115.3889L60.096874 119.342026ZM71.6125 118.560776Q71.6125 120.467026 70.95625 121.404526Q70.31563 122.3264 68.925 122.3264Q67.56563 122.3264 66.90938 121.42015Q66.25313 120.5139 66.22188 118.7014L66.22188 117.2639Q66.22188 115.373276 66.8625 114.467026Q67.51875 113.54515 68.90938 113.54515Q70.28438 113.54515 70.94063 114.435776Q71.59688 115.310776 71.6125 117.154526L71.6125 118.560776ZM70.51875 117.0764Q70.51875 115.7014 70.12813 115.0764Q69.75313 114.435776 68.90938 114.435776Q68.08125 114.435776 67.69063 115.0764Q67.31563 115.7014 67.31563 116.998276L67.31563 118.73265Q67.31563 120.10765 67.70625 120.779526Q68.1125 121.435776 68.925 121.435776Q69.72188 121.435776 70.1125 120.810776Q70.50313 120.185776 70.51875 118.85765L70.51875 117.0764ZM78.6125 118.560776Q78.6125 120.467026 77.95625 121.404526Q77.31563 122.3264 75.925 122.3264Q74.56563 122.3264 73.90938 121.42015Q73.25313 120.5139 73.22188 118.7014L73.22188 117.2639Q73.22188 115.373276 73.8625 114.467026Q74.51875 113.54515 75.90938 113.54515Q77.28438 113.54515 77.94063 114.435776Q78.59688 115.310776 78.6125 117.154526L78.6125 118.560776ZM77.51875 117.0764Q77.51875 115.7014 77.12813 115.0764Q76.75313 114.435776 75.90938 114.435776Q75.08125 114.435776 74.69063 115.0764Q74.31563 115.7014 74.31563 116.998276L74.31563 118.73265Q74.31563 120.10765 74.70625 120.779526Q75.1125 121.435776 75.925 121.435776Q76.72188 121.435776 77.1125 120.810776Q77.50313 120.185776 77.51875 118.85765L77.51875 117.0764Z" fill-rule="nonzero"/><path fill="#757575" d="M63.51875 89.20627L63.51875 90.11252L63.315624 90.11252Q62.05 90.14377 61.3 90.87814Q60.55 91.59689 60.425 92.90939Q61.1125 92.14377 62.26875 92.14377Q63.378124 92.14377 64.05 92.92502Q64.72188 93.70627 64.72188 94.95627Q64.72188 96.26877 64.00313 97.06564Q63.284374 97.86252 62.065624 97.86252Q60.846874 97.86252 60.08125 96.92502Q59.33125 95.97189 59.33125 94.48752L59.33125 94.08127Q59.33125 91.72189 60.33125 90.47189Q61.33125 89.22189 63.315624 89.20627L63.51875 89.20627ZM62.096874 93.05002Q61.534374 93.05002 61.065624 93.37814Q60.596874 93.70627 60.409374 94.22189L60.409374 94.61252Q60.409374 95.67502 60.878124 96.31564Q61.3625 96.95627 62.065624 96.95627Q62.8 96.95627 63.221874 96.42502Q63.64375 95.87814 63.64375 95.00314Q63.64375 94.12814 63.221874 93.59689Q62.8 93.05002 62.096874 93.05002ZM71.6125 94.09689Q71.6125 96.00314 70.95625 96.94064Q70.31563 97.86252 68.925 97.86252Q67.56563 97.86252 66.90938 96.95627Q66.25313 96.05002 66.22188 94.23752L66.22188 92.80002Q66.22188 90.90939 66.8625 90.00314Q67.51875 89.08127 68.90938 89.08127Q70.28438 89.08127 70.94063 89.97189Q71.59688 90.84689 71.6125 92.69064L71.6125 94.09689ZM70.51875 92.61252Q70.51875 91.23752 70.12813 90.61252Q69.75313 89.97189 68.90938 89.97189Q68.08125 89.97189 67.69063 90.61252Q67.31563 91.23752 67.31563 92.53439L67.31563 94.26877Q67.31563 95.64377 67.70625 96.31564Q68.1125 96.97189 68.925 96.97189Q69.72188 96.97189 70.1125 96.34689Q70.50313 95.72189 70.51875 94.39377L70.51875 92.61252ZM78.6125 94.09689Q78.6125 96.00314 77.95625 96.94064Q77.31563 97.86252 75.925 97.86252Q74.56563 97.86252 73.90938 96.95627Q73.25313 96.05002 73.22188 94.23752L73.22188 92.80002Q73.22188 90.90939 73.8625 90.00314Q74.51875 89.08127 75.90938 89.08127Q77.28438 89.08127 77.94063 89.97189Q78.59688 90.84689 78.6125 92.69064L78.6125 94.09689ZM77.51875 92.61252Q77.51875 91.23752 77.12813 90.61252Q76.75313 89.97189 75.90938 89.97189Q75.08125 89.97189 74.69063 90.61252Q74.31563 91.23752 74.31563 92.53439L74.31563 94.26877Q74.31563 95.64377 74.70625 96.31564Q75.1125 96.97189 75.925 96.97189Q76.72188 96.97189 77.1125 96.34689Q77.50313 95.72189 77.51875 94.39377L77.51875 92.61252Z" fill-rule="nonzero"/><path fill="#757575" d="M64.44063 74.06761Q64.44063 74.70824 64.09688 75.20824Q63.753124 75.70824 63.190624 75.98949Q63.846874 76.27074 64.2375 76.83324Q64.62813 77.38011 64.62813 78.08324Q64.62813 79.17699 63.878124 79.84886Q63.14375 80.50511 61.925 80.50511Q60.690624 80.50511 59.940624 79.84886Q59.20625 79.17699 59.20625 78.08324Q59.20625 77.38011 59.58125 76.83324Q59.95625 76.27074 60.628124 75.98949Q60.065624 75.70824 59.7375 75.20824Q59.409374 74.70824 59.409374 74.06761Q59.409374 72.98949 60.096874 72.36449Q60.784374 71.72386 61.925 71.72386Q63.05 71.72386 63.7375 72.36449Q64.44063 72.98949 64.44063 74.06761ZM63.55 78.05199Q63.55 77.33324 63.096874 76.89574Q62.64375 76.44261 61.909374 76.44261Q61.175 76.44261 60.721874 76.89574Q60.284374 77.33324 60.284374 78.06761Q60.284374 78.78636 60.721874 79.20824Q61.159374 79.61449 61.925 79.61449Q62.675 79.61449 63.1125 79.19261Q63.55 78.77074 63.55 78.05199ZM61.925 72.61449Q61.284374 72.61449 60.878124 73.02074Q60.4875 73.41136 60.4875 74.09886Q60.4875 74.73949 60.878124 75.14574Q61.26875 75.55199 61.909374 75.55199Q62.565624 75.55199 62.95625 75.14574Q63.346874 74.73949 63.346874 74.09886Q63.346874 73.44261 62.940624 73.03636Q62.534374 72.61449 61.925 72.61449ZM71.6125 76.73949Q71.6125 78.64574 70.95625 79.58324Q70.31563 80.50511 68.925 80.50511Q67.56563 80.50511 66.90938 79.59886Q66.25313 78.69261 66.22188 76.88011L66.22188 75.44261Q66.22188 73.55199 66.8625 72.64574Q67.51875 71.72386 68.90938 71.72386Q70.28438 71.72386 70.94063 72.61449Q71.59688 73.48949 71.6125 75.33324L71.6125 76.73949ZM70.51875 75.25511Q70.51875 73.88011 70.12813 73.25511Q69.75313 72.61449 68.90938 72.61449Q68.08125 72.61449 67.69063 73.25511Q67.31563 73.88011 67.31563 75.17699L67.31563 76.91136Q67.31563 78.28636 67.70625 78.95824Q68.1125 79.61449 68.925 79.61449Q69.72188 79.61449 70.1125 78.98949Q70.50313 78.36449 70.51875 77.03636L70.51875 75.25511ZM78.6125 76.73949Q78.6125 78.64574 77.95625 79.58324Q77.31563 80.50511 75.925 80.50511Q74.56563 80.50511 73.90938 79.59886Q73.25313 78.69261 73.22188 76.88011L73.22188 75.44261Q73.22188 73.55199 73.8625 72.64574Q74.51875 71.72386 75.90938 71.72386Q77.28438 71.72386 77.94063 72.61449Q78.59688 73.48949 78.6125 75.33324L78.6125 76.73949ZM77.51875 75.25511Q77.51875 73.88011 77.12813 73.25511Q76.75313 72.61449 75.90938 72.61449Q75.08125 72.61449 74.69063 73.25511Q74.31563 73.88011 74.31563 75.17699L74.31563 76.91136Q74.31563 78.28636 74.70625 78.95824Q75.1125 79.61449 75.925 79.61449Q76.72188 79.61449 77.1125 78.98949Q77.50313 78.36449 77.51875 77.03636L77.51875 75.25511Z" fill-rule="nonzero"/><path fill="#757575" d="M97.51758 312.8094Q97.51758 314.71564 96.86133 315.65314Q96.2207 316.575 94.83008 316.575Q93.4707 316.575 92.81445 315.66876Q92.1582 314.7625 92.12695 312.95L92.12695 311.5125Q92.12695 309.6219 92.76758 308.71564Q93.42383 307.79376 94.81445 307.79376Q96.18945 307.79376 96.8457 308.6844Q97.50195 309.5594 97.51758 311.40314L97.51758 312.8094ZM96.42383 311.325Q96.42383 309.95 96.0332 309.325Q95.6582 308.6844 94.81445 308.6844Q93.98633 308.6844 93.5957 309.325Q93.2207 309.95 93.2207 311.2469L93.2207 312.98126Q93.2207 314.35626 93.61133 315.02814Q94.01758 315.6844 94.83008 315.6844Q95.62695 315.6844 96.01758 315.0594Q96.4082 314.4344 96.42383 313.10626L96.42383 311.325Z" fill-rule="nonzero"/><path fill="#757575" d="M189.28328 312.16876L189.72078 307.91876L194.09578 307.91876L194.09578 308.91876L190.64265 308.91876L190.37703 311.2469Q191.01765 310.8719 191.81453 310.8719Q192.97078 310.8719 193.65828 311.65314Q194.34578 312.41876 194.34578 313.73126Q194.34578 315.04376 193.62703 315.8094Q192.9239 316.575 191.64265 316.575Q190.51765 316.575 189.7989 315.95Q189.08015 315.3094 188.9864 314.2L190.00203 314.2Q190.1114 314.9344 190.53328 315.3094Q190.95515 315.6844 191.64265 315.6844Q192.39265 315.6844 192.83015 315.16876Q193.26765 314.65314 193.26765 313.7469Q193.26765 312.8875 192.7989 312.3719Q192.33015 311.85626 191.5489 311.85626Q190.84578 311.85626 190.43953 312.15314L190.15828 312.3875L189.28328 312.16876ZM201.14265 312.8094Q201.14265 314.71564 200.4864 315.65314Q199.84578 316.575 198.45515 316.575Q197.09578 316.575 196.43953 315.66876Q195.78328 314.7625 195.75203 312.95L195.75203 311.5125Q195.75203 309.6219 196.39265 308.71564Q197.0489 307.79376 198.43953 307.79376Q199.81453 307.79376 200.47078 308.6844Q201.12703 309.5594 201.14265 311.40314L201.14265 312.8094ZM200.0489 311.325Q200.0489 309.95 199.65828 309.325Q199.28328 308.6844 198.43953 308.6844Q197.6114 308.6844 197.22078 309.325Q196.84578 309.95 196.84578 311.2469L196.84578 312.98126Q196.84578 314.35626 197.2364 315.02814Q197.64265 315.6844 198.45515 315.6844Q199.25203 315.6844 199.64265 315.0594Q200.03328 314.4344 200.0489 313.10626L200.0489 311.325ZM208.14265 312.8094Q208.14265 314.71564 207.4864 315.65314Q206.84578 316.575 205.45515 316.575Q204.09578 316.575 203.43953 315.66876Q202.78328 314.7625 202.75203 312.95L202.75203 311.5125Q202.75203 309.6219 203.39265 308.71564Q204.0489 307.79376 205.43953 307.79376Q206.81453 307.79376 207.47078 308.6844Q208.12703 309.5594 208.14265 311.40314L208.14265 312.8094ZM207.0489 311.325Q207.0489 309.95 206.65828 309.325Q206.28328 308.6844 205.43953 308.6844Q204.6114 308.6844 204.22078 309.325Q203.84578 309.95 203.84578 311.2469L203.84578 312.98126Q203.84578 314.35626 204.2364 315.02814Q204.64265 315.6844 205.45515 315.6844Q206.25203 315.6844 206.64265 315.0594Q207.03328 314.4344 207.0489 313.10626L207.0489 311.325Z" fill-rule="nonzero"/><path fill="#757575" d="M292.47086 316.45L291.39273 316.45L291.39273 309.23126L289.20523 310.02814L289.20523 309.04376L292.3146 307.8719L292.47086 307.8719L292.47086 316.45ZM301.26773 312.8094Q301.26773 314.71564 300.61148 315.65314Q299.97086 316.575 298.58023 316.575Q297.22086 316.575 296.5646 315.66876Q295.90836 314.7625 295.8771 312.95L295.8771 311.5125Q295.8771 309.6219 296.51773 308.71564Q297.17398 307.79376 298.5646 307.79376Q299.9396 307.79376 300.59586 308.6844Q301.2521 309.5594 301.26773 311.40314L301.26773 312.8094ZM300.17398 311.325Q300.17398 309.95 299.78336 309.325Q299.40836 308.6844 298.5646 308.6844Q297.73648 308.6844 297.34586 309.325Q296.97086 309.95 296.97086 311.2469L296.97086 312.98126Q296.97086 314.35626 297.36148 315.02814Q297.76773 315.6844 298.58023 315.6844Q299.3771 315.6844 299.76773 315.0594Q300.15836 314.4344 300.17398 313.10626L300.17398 311.325ZM308.26773 312.8094Q308.26773 314.71564 307.61148 315.65314Q306.97086 316.575 305.58023 316.575Q304.22086 316.575 303.5646 315.66876Q302.90836 314.7625 302.8771 312.95L302.8771 311.5125Q302.8771 309.6219 303.51773 308.71564Q304.17398 307.79376 305.5646 307.79376Q306.9396 307.79376 307.59586 308.6844Q308.2521 309.5594 308.26773 311.40314L308.26773 312.8094ZM307.17398 311.325Q307.17398 309.95 306.78336 309.325Q306.40836 308.6844 305.5646 308.6844Q304.73648 308.6844 304.34586 309.325Q303.97086 309.95 303.97086 311.2469L303.97086 312.98126Q303.97086 314.35626 304.36148 315.02814Q304.76773 315.6844 305.58023 315.6844Q306.3771 315.6844 306.76773 315.0594Q307.15836 314.4344 307.17398 313.10626L307.17398 311.325ZM315.26773 312.8094Q315.26773 314.71564 314.61148 315.65314Q313.97086 316.575 312.58023 316.575Q311.22086 316.575 310.5646 315.66876Q309.90836 314.7625 309.8771 312.95L309.8771 311.5125Q309.8771 309.6219 310.51773 308.71564Q311.17398 307.79376 312.5646 307.79376Q313.9396 307.79376 314.59586 308.6844Q315.2521 309.5594 315.26773 311.40314L315.26773 312.8094ZM314.17398 311.325Q314.17398 309.95 313.78336 309.325Q313.40836 308.6844 312.5646 308.6844Q311.73648 308.6844 311.34586 309.325Q310.97086 309.95 310.97086 311.2469L310.97086 312.98126Q310.97086 314.35626 311.36148 315.02814Q311.76773 315.6844 312.58023 315.6844Q313.3771 315.6844 313.76773 315.0594Q314.15836 314.4344 314.17398 313.10626L314.17398 311.325Z" fill-rule="nonzero"/><path fill="#757575" d="M396.09592 316.45L395.0178 316.45L395.0178 309.23126L392.8303 310.02814L392.8303 309.04376L395.93967 307.8719L396.09592 307.8719L396.09592 316.45ZM400.03342 312.16876L400.47092 307.91876L404.84592 307.91876L404.84592 308.91876L401.3928 308.91876L401.12717 311.2469Q401.7678 310.8719 402.56467 310.8719Q403.72092 310.8719 404.40842 311.65314Q405.09592 312.41876 405.09592 313.73126Q405.09592 315.04376 404.37717 315.8094Q403.67404 316.575 402.3928 316.575Q401.2678 316.575 400.54904 315.95Q399.8303 315.3094 399.73654 314.2L400.75217 314.2Q400.86154 314.9344 401.28342 315.3094Q401.7053 315.6844 402.3928 315.6844Q403.1428 315.6844 403.5803 315.16876Q404.0178 314.65314 404.0178 313.7469Q404.0178 312.8875 403.54904 312.3719Q403.0803 311.85626 402.29904 311.85626Q401.59592 311.85626 401.18967 312.15314L400.90842 312.3875L400.03342 312.16876ZM411.8928 312.8094Q411.8928 314.71564 411.23654 315.65314Q410.59592 316.575 409.2053 316.575Q407.84592 316.575 407.18967 315.66876Q406.53342 314.7625 406.50217 312.95L406.50217 311.5125Q406.50217 309.6219 407.1428 308.71564Q407.79904 307.79376 409.18967 307.79376Q410.56467 307.79376 411.22092 308.6844Q411.87717 309.5594 411.8928 311.40314L411.8928 312.8094ZM410.79904 311.325Q410.79904 309.95 410.40842 309.325Q410.03342 308.6844 409.18967 308.6844Q408.36154 308.6844 407.97092 309.325Q407.59592 309.95 407.59592 311.2469L407.59592 312.98126Q407.59592 314.35626 407.98654 315.02814Q408.3928 315.6844 409.2053 315.6844Q410.00217 315.6844 410.3928 315.0594Q410.78342 314.4344 410.79904 313.10626L410.79904 311.325ZM418.8928 312.8094Q418.8928 314.71564 418.23654 315.65314Q417.59592 316.575 416.2053 316.575Q414.84592 316.575 414.18967 315.66876Q413.53342 314.7625 413.50217 312.95L413.50217 311.5125Q413.50217 309.6219 414.1428 308.71564Q414.79904 307.79376 416.18967 307.79376Q417.56467 307.79376 418.22092 308.6844Q418.87717 309.5594 418.8928 311.40314L418.8928 312.8094ZM417.79904 311.325Q417.79904 309.95 417.40842 309.325Q417.03342 308.6844 416.18967 308.6844Q415.36154 308.6844 414.97092 309.325Q414.59592 309.95 414.59592 311.2469L414.59592 312.98126Q414.59592 314.35626 414.98654 315.02814Q415.3928 315.6844 416.2053 315.6844Q417.00217 315.6844 417.3928 315.0594Q417.78342 314.4344 417.79904 313.10626L417.79904 311.325Z" fill-rule="nonzero"/><path fill="#757575" d="M501.75226 316.45L496.1585 316.45L496.1585 315.66876L499.11163 312.3875Q499.76788 311.6375 500.01788 311.1844Q500.26788 310.71564 500.26788 310.21564Q500.26788 309.54376 499.86163 309.1219Q499.471 308.6844 498.7835 308.6844Q497.98663 308.6844 497.5335 309.15314Q497.08038 309.60626 497.08038 310.4344L496.00226 310.4344Q496.00226 309.2469 496.75226 308.52814Q497.51788 307.79376 498.7835 307.79376Q499.98663 307.79376 500.67413 308.41876Q501.36163 309.04376 501.36163 310.09064Q501.36163 311.34064 499.75226 313.09064L497.471 315.5594L501.75226 315.5594L501.75226 316.45ZM508.51788 312.8094Q508.51788 314.71564 507.86163 315.65314Q507.221 316.575 505.83038 316.575Q504.471 316.575 503.81476 315.66876Q503.1585 314.7625 503.12726 312.95L503.12726 311.5125Q503.12726 309.6219 503.76788 308.71564Q504.42413 307.79376 505.81476 307.79376Q507.18976 307.79376 507.846 308.6844Q508.50226 309.5594 508.51788 311.40314L508.51788 312.8094ZM507.42413 311.325Q507.42413 309.95 507.0335 309.325Q506.6585 308.6844 505.81476 308.6844Q504.98663 308.6844 504.596 309.325Q504.221 309.95 504.221 311.2469L504.221 312.98126Q504.221 314.35626 504.61163 315.02814Q505.01788 315.6844 505.83038 315.6844Q506.62726 315.6844 507.01788 315.0594Q507.4085 314.4344 507.42413 313.10626L507.42413 311.325ZM515.5179 312.8094Q515.5179 314.71564 514.86163 315.65314Q514.221 316.575 512.8304 316.575Q511.471 316.575 510.81476 315.66876Q510.1585 314.7625 510.12726 312.95L510.12726 311.5125Q510.12726 309.6219 510.76788 308.71564Q511.42413 307.79376 512.81476 307.79376Q514.18976 307.79376 514.846 308.6844Q515.50226 309.5594 515.5179 311.40314L515.5179 312.8094ZM514.42413 311.325Q514.42413 309.95 514.0335 309.325Q513.6585 308.6844 512.81476 308.6844Q511.98663 308.6844 511.596 309.325Q511.221 309.95 511.221 311.2469L511.221 312.98126Q511.221 314.35626 511.61163 315.02814Q512.0179 315.6844 512.8304 315.6844Q513.62726 315.6844 514.0179 315.0594Q514.4085 314.4344 514.42413 313.10626L514.42413 311.325ZM522.5179 312.8094Q522.5179 314.71564 521.86163 315.65314Q521.221 316.575 519.8304 316.575Q518.471 316.575 517.81476 315.66876Q517.1585 314.7625 517.12726 312.95L517.12726 311.5125Q517.12726 309.6219 517.7679 308.71564Q518.42413 307.79376 519.81476 307.79376Q521.18976 307.79376 521.846 308.6844Q522.50226 309.5594 522.5179 311.40314L522.5179 312.8094ZM521.42413 311.325Q521.42413 309.95 521.0335 309.325Q520.6585 308.6844 519.81476 308.6844Q518.98663 308.6844 518.596 309.325Q518.221 309.95 518.221 311.2469L518.221 312.98126Q518.221 314.35626 518.61163 315.02814Q519.0179 315.6844 519.8304 315.6844Q520.62726 315.6844 521.0179 315.0594Q521.4085 314.4344 521.42413 313.10626L521.42413 311.325Z" fill-rule="nonzero"/><path fill="#757575" d="M22.08125 36.01875L28.83125 36.01875L28.83125 37.55L20.20625 37.55L20.20625 23.33125L22.08125 23.33125L22.08125 36.01875ZM32.878124 37.55L31.065624 37.55L31.065624 26.9875L32.878124 26.9875L32.878124 37.55ZM32.64375 22.55L34.83125 22.55L32.20625 25.425L30.753124 25.425L32.64375 22.55ZM37.6125 26.9875L37.659374 28.159374Q38.83125 26.784374 40.8 26.784374Q43.01875 26.784374 43.815624 28.4875Q44.346874 27.721874 45.190624 27.253124Q46.034374 26.784374 47.190624 26.784374Q50.659374 26.784374 50.721874 30.471874L50.721874 37.55L48.909374 37.55L48.909374 30.58125Q48.909374 29.440624 48.39375 28.878124Q47.878124 28.315624 46.659374 28.315624Q45.659374 28.315624 44.9875 28.925Q44.33125 29.51875 44.221874 30.534374L44.221874 37.55L42.409374 37.55L42.409374 30.628124Q42.409374 28.315624 40.14375 28.315624Q38.3625 28.315624 37.721874 29.83125L37.721874 37.55L35.909374 37.55L35.909374 26.9875L37.6125 26.9875ZM55.878124 37.55L54.08125 37.55L54.08125 26.9875L55.878124 26.9875L55.878124 37.55ZM53.925 24.175Q53.925 23.7375 54.190624 23.440624Q54.471874 23.128124 54.9875 23.128124Q55.51875 23.128124 55.784374 23.440624Q56.065624 23.7375 56.065624 24.175Q56.065624 24.6125 55.784374 24.909374Q55.51875 25.20625 54.9875 25.20625Q54.471874 25.20625 54.190624 24.909374Q53.925 24.6125 53.925 24.175ZM61.3625 24.425L61.3625 26.9875L63.346874 26.9875L63.346874 28.378124L61.3625 28.378124L61.3625 34.925Q61.3625 35.565624 61.628124 35.89375Q61.89375 36.20625 62.534374 36.20625Q62.846874 36.20625 63.39375 36.08125L63.39375 37.55Q62.675 37.753124 62.003124 37.753124Q60.8 37.753124 60.175 37.01875Q59.565624 36.284374 59.565624 34.925L59.565624 28.378124L57.64375 28.378124L57.64375 26.9875L59.565624 26.9875L59.565624 24.425L61.3625 24.425ZM70.3 37.753124Q68.15938 37.753124 66.8 36.346874Q65.45625 34.925 65.45625 32.565624L65.45625 32.221874Q65.45625 30.659374 66.05 29.425Q66.65938 28.190624 67.7375 27.4875Q68.81563 26.784374 70.08125 26.784374Q72.14375 26.784374 73.28438 28.14375Q74.425 29.503124 74.425 32.034374L74.425 32.784374L67.26875 32.784374Q67.3 34.346874 68.175 35.315624Q69.05 36.26875 70.39375 36.26875Q71.3625 36.26875 72.01875 35.878124Q72.69063 35.4875 73.19063 34.846874L74.28438 35.70625Q72.95625 37.753124 70.3 37.753124ZM70.08125 28.26875Q68.9875 28.26875 68.2375 29.065624Q67.50313 29.8625 67.33125 31.3L72.6125 31.3L72.6125 31.159374Q72.53438 29.784374 71.8625 29.034374Q71.20625 28.26875 70.08125 28.26875ZM92.01875 24.878124L87.45625 24.878124L87.45625 37.55L85.59688 37.55L85.59688 24.878124L81.03438 24.878124L81.03438 23.33125L92.01875 23.33125L92.01875 24.878124ZM98.3 37.753124Q96.15938 37.753124 94.8 36.346874Q93.45625 34.925 93.45625 32.565624L93.45625 32.221874Q93.45625 30.659374 94.05 29.425Q94.65938 28.190624 95.7375 27.4875Q96.81563 26.784374 98.08125 26.784374Q100.14375 26.784374 101.28438 28.14375Q102.425 29.503124 102.425 32.034374L102.425 32.784374L95.26875 32.784374Q95.3 34.346874 96.175 35.315624Q97.05 36.26875 98.39375 36.26875Q99.3625 36.26875 100.01875 35.878124Q100.69063 35.4875 101.19063 34.846874L102.28438 35.70625Q100.95625 37.753124 98.3 37.753124ZM98.08125 28.26875Q96.9875 28.26875 96.2375 29.065624Q95.50313 29.8625 95.33125 31.3L100.6125 31.3L100.6125 31.159374Q100.53438 29.784374 99.8625 29.034374Q99.20625 28.26875 98.08125 28.26875ZM104.44063 32.175Q104.44063 30.6125 105.05 29.378124Q105.65938 28.128124 106.7375 27.45625Q107.83125 26.784374 109.2375 26.784374Q111.39375 26.784374 112.72188 28.284374Q114.06563 29.76875 114.06563 32.253124L114.06563 32.378124Q114.06563 33.925 113.47188 35.159374Q112.87813 36.378124 111.76875 37.065624Q110.675 37.753124 109.25313 37.753124Q107.1125 37.753124 105.76875 36.253124Q104.44063 34.753124 104.44063 32.3L104.44063 32.175ZM106.25313 32.378124Q106.25313 34.14375 107.06563 35.20625Q107.89375 36.26875 109.25313 36.26875Q110.62813 36.26875 111.44063 35.190624Q112.25313 34.1125 112.25313 32.175Q112.25313 30.425 111.425 29.346874Q110.59688 28.26875 109.2375 28.26875Q107.89375 28.26875 107.06563 29.33125Q106.25313 30.39375 106.25313 32.378124ZM109.64375 22.55L111.83125 22.55L109.20625 25.425L107.75313 25.425L109.64375 22.55ZM121.01875 28.596874Q120.6125 28.534374 120.14375 28.534374Q118.3625 28.534374 117.72188 30.05L117.72188 37.55L115.925 37.55L115.925 26.9875L117.675 26.9875L117.70625 28.20625Q118.59688 26.784374 120.22188 26.784374Q120.75313 26.784374 121.01875 26.925L121.01875 28.596874ZM124.87813 37.55L123.08125 37.55L123.08125 26.9875L124.87813 26.9875L124.87813 37.55ZM122.925 24.175Q122.925 23.7375 123.19063 23.440624Q123.47188 23.128124 123.9875 23.128124Q124.51875 23.128124 124.78438 23.440624Q125.06563 23.7375 125.06563 24.175Q125.06563 24.6125 124.78438 24.909374Q124.51875 25.20625 123.9875 25.20625Q123.47188 25.20625 123.19063 24.909374Q122.925 24.6125 122.925 24.175ZM132.15938 36.26875Q133.12813 36.26875 133.84688 35.690624Q134.56563 35.096874 134.64375 34.221874L136.3625 34.221874Q136.3 35.128124 135.72188 35.95625Q135.15938 36.76875 134.19063 37.26875Q133.2375 37.753124 132.15938 37.753124Q130.00313 37.753124 128.72188 36.315624Q127.45625 34.8625 127.45625 32.3625L127.45625 32.065624Q127.45625 30.51875 128.01875 29.315624Q128.58125 28.1125 129.64375 27.45625Q130.70625 26.784374 132.14375 26.784374Q133.925 26.784374 135.09688 27.846874Q136.28438 28.909374 136.3625 30.6125L134.64375 30.6125Q134.56563 29.596874 133.8625 28.940624Q133.175 28.26875 132.14375 28.26875Q130.76875 28.26875 130.00313 29.26875Q129.25313 30.253124 129.25313 32.128124L129.25313 32.471874Q129.25313 34.3 130.00313 35.284374Q130.75313 36.26875 132.15938 36.26875ZM137.44063 32.175Q137.44063 30.6125 138.05 29.378124Q138.65938 28.128124 139.7375 27.45625Q140.83125 26.784374 142.2375 26.784374Q144.39375 26.784374 145.72188 28.284374Q147.06563 29.76875 147.06563 32.253124L147.06563 32.378124Q147.06563 33.925 146.47188 35.159374Q145.87813 36.378124 144.76875 37.065624Q143.675 37.753124 142.25313 37.753124Q140.1125 37.753124 138.76875 36.253124Q137.44063 34.753124 137.44063 32.3L137.44063 32.175ZM139.25313 32.378124Q139.25313 34.14375 140.06563 35.20625Q140.89375 36.26875 142.25313 36.26875Q143.62813 36.26875 144.44063 35.190624Q145.25313 34.1125 145.25313 32.175Q145.25313 30.425 144.425 29.346874Q143.59688 28.26875 142.2375 28.26875Q140.89375 28.26875 140.06563 29.33125Q139.25313 30.39375 139.25313 32.378124ZM153.47188 32.175Q153.47188 29.753124 154.62813 28.26875Q155.78438 26.784374 157.64375 26.784374Q159.50313 26.784374 160.58125 28.05L160.58125 22.55L162.39375 22.55L162.39375 37.55L160.7375 37.55L160.64375 36.409374Q159.56563 37.753124 157.62813 37.753124Q155.8 37.753124 154.62813 36.253124Q153.47188 34.7375 153.47188 32.315624L153.47188 32.175ZM155.28438 32.378124Q155.28438 34.175 156.01875 35.190624Q156.76875 36.20625 158.08125 36.20625Q159.8 36.20625 160.58125 34.675L160.58125 29.815624Q159.78438 28.315624 158.09688 28.315624Q156.76875 28.315624 156.01875 29.346874Q155.28438 30.378124 155.28438 32.378124ZM169.3 37.753124Q167.15938 37.753124 165.8 36.346874Q164.45625 34.925 164.45625 32.565624L164.45625 32.221874Q164.45625 30.659374 165.05 29.425Q165.65938 28.190624 166.7375 27.4875Q167.81563 26.784374 169.08125 26.784374Q171.14375 26.784374 172.28438 28.14375Q173.425 29.503124 173.425 32.034374L173.425 32.784374L166.26875 32.784374Q166.3 34.346874 167.175 35.315624Q168.05 36.26875 169.39375 36.26875Q170.3625 36.26875 171.01875 35.878124Q171.69063 35.4875 172.19063 34.846874L173.28438 35.70625Q171.95625 37.753124 169.3 37.753124ZM169.08125 28.26875Q167.9875 28.26875 167.2375 29.065624Q166.50313 29.8625 166.33125 31.3L171.6125 31.3L171.6125 31.159374Q171.53438 29.784374 170.8625 29.034374Q170.20625 28.26875 169.08125 28.26875ZM181.8 37.55L181.8 28.378124L180.14375 28.378124L180.14375 26.9875L181.8 26.9875L181.8 25.89375Q181.8 24.20625 182.70625 23.284374Q183.62813 22.346874 185.28438 22.346874Q185.90938 22.346874 186.51875 22.503124L186.425 23.971874Q185.97188 23.89375 185.45625 23.89375Q184.56563 23.89375 184.08125 24.409374Q183.6125 24.909374 183.6125 25.8625L183.6125 26.9875L185.8625 26.9875L185.8625 28.378124L183.6125 28.378124L183.6125 37.55L181.8 37.55ZM187.44063 32.175Q187.44063 30.6125 188.05 29.378124Q188.65938 28.128124 189.7375 27.45625Q190.83125 26.784374 192.2375 26.784374Q194.39375 26.784374 195.72188 28.284374Q197.06563 29.76875 197.06563 32.253124L197.06563 32.378124Q197.06563 33.925 196.47188 35.159374Q195.87813 36.378124 194.76875 37.065624Q193.675 37.753124 192.25313 37.753124Q190.1125 37.753124 188.76875 36.253124Q187.44063 34.753124 187.44063 32.3L187.44063 32.175ZM189.25313 32.378124Q189.25313 34.14375 190.06563 35.20625Q190.89375 36.26875 192.25313 36.26875Q193.62813 36.26875 194.44063 35.190624Q195.25313 34.1125 195.25313 32.175Q195.25313 30.425 194.425 29.346874Q193.59688 28.26875 192.2375 28.26875Q190.89375 28.26875 190.06563 29.33125Q189.25313 30.39375 189.25313 32.378124ZM201.3625 24.425L201.3625 26.9875L203.34688 26.9875L203.34688 28.378124L201.3625 28.378124L201.3625 34.925Q201.3625 35.565624 201.62813 35.89375Q201.89375 36.20625 202.53438 36.20625Q202.84688 36.20625 203.39375 36.08125L203.39375 37.55Q202.675 37.753124 202.00313 37.753124Q200.8 37.753124 200.175 37.01875Q199.56563 36.284374 199.56563 34.925L199.56563 28.378124L197.64375 28.378124L197.64375 26.9875L199.56563 26.9875L199.56563 24.425L201.3625 24.425ZM205.44063 32.175Q205.44063 30.6125 206.05 29.378124Q206.65938 28.128124 207.7375 27.45625Q208.83125 26.784374 210.2375 26.784374Q212.39375 26.784374 213.72188 28.284374Q215.06563 29.76875 215.06563 32.253124L215.06563 32.378124Q215.06563 33.925 214.47188 35.159374Q213.87813 36.378124 212.76875 37.065624Q211.675 37.753124 210.25313 37.753124Q208.1125 37.753124 206.76875 36.253124Q205.44063 34.753124 205.44063 32.3L205.44063 32.175ZM207.25313 32.378124Q207.25313 34.14375 208.06563 35.20625Q208.89375 36.26875 210.25313 36.26875Q211.62813 36.26875 212.44063 35.190624Q213.25313 34.1125 213.25313 32.175Q213.25313 30.425 212.425 29.346874Q211.59688 28.26875 210.2375 28.26875Q208.89375 28.26875 208.06563 29.33125Q207.25313 30.39375 207.25313 32.378124ZM216.4875 32.175Q216.4875 29.70625 217.62813 28.253124Q218.76875 26.784374 220.65938 26.784374Q222.59688 26.784374 223.675 28.159374L223.76875 26.9875L225.40938 26.9875L225.40938 37.3Q225.40938 39.346874 224.19063 40.51875Q222.9875 41.70625 220.925 41.70625Q219.78438 41.70625 218.69063 41.221874Q217.59688 40.7375 217.01875 39.878124L217.95625 38.8Q219.12813 40.2375 220.8 40.2375Q222.12813 40.2375 222.8625 39.4875Q223.59688 38.753124 223.59688 37.409374L223.59688 36.4875Q222.51875 37.753124 220.64375 37.753124Q218.78438 37.753124 217.62813 36.253124Q216.4875 34.753124 216.4875 32.175ZM218.3 32.378124Q218.3 34.175 219.03438 35.190624Q219.76875 36.20625 221.08125 36.20625Q222.8 36.20625 223.59688 34.659374L223.59688 29.83125Q222.76875 28.315624 221.1125 28.315624Q219.78438 28.315624 219.03438 29.346874Q218.3 30.378124 218.3 32.378124ZM233.01875 28.596874Q232.6125 28.534374 232.14375 28.534374Q230.3625 28.534374 229.72188 30.05L229.72188 37.55L227.925 37.55L227.925 26.9875L229.675 26.9875L229.70625 28.20625Q230.59688 26.784374 232.22188 26.784374Q232.75313 26.784374 233.01875 26.925L233.01875 28.596874ZM241.44063 37.55Q241.28438 37.2375 241.19063 36.440624Q239.925 37.753124 238.175 37.753124Q236.6125 37.753124 235.6125 36.8625Q234.6125 35.971874 234.6125 34.6125Q234.6125 32.971874 235.8625 32.065624Q237.12813 31.14375 239.39375 31.14375L241.15938 31.14375L241.15938 30.315624Q241.15938 29.3625 240.58125 28.8Q240.01875 28.2375 238.925 28.2375Q237.95625 28.2375 237.3 28.7375Q236.64375 29.221874 236.64375 29.909374L234.83125 29.909374Q234.83125 29.128124 235.39375 28.39375Q235.95625 27.64375 236.90938 27.221874Q237.87813 26.784374 239.03438 26.784374Q240.8625 26.784374 241.89375 27.70625Q242.925 28.6125 242.97188 30.221874L242.97188 35.08125Q242.97188 36.534374 243.33125 37.39375L243.33125 37.55L241.44063 37.55ZM238.44063 36.175Q239.3 36.175 240.05 35.7375Q240.81563 35.3 241.15938 34.596874L241.15938 32.425L239.7375 32.425Q236.425 32.425 236.425 34.3625Q236.425 35.221874 236.9875 35.70625Q237.55 36.175 238.44063 36.175ZM247.6125 26.9875L247.65938 28.159374Q248.83125 26.784374 250.8 26.784374Q253.01875 26.784374 253.81563 28.4875Q254.34688 27.721874 255.19063 27.253124Q256.03436 26.784374 257.1906 26.784374Q260.65936 26.784374 260.72186 30.471874L260.72186 37.55L258.90936 37.55L258.90936 30.58125Q258.90936 29.440624 258.39374 28.878124Q257.8781 28.315624 256.65936 28.315624Q255.65938 28.315624 254.9875 28.925Q254.33125 29.51875 254.22188 30.534374L254.22188 37.55L252.40938 37.55L252.40938 30.628124Q252.40938 28.315624 250.14375 28.315624Q248.3625 28.315624 247.72188 29.83125L247.72188 37.55L245.90938 37.55L245.90938 26.9875L247.6125 26.9875ZM270.4406 37.55Q270.28436 37.2375 270.1906 36.440624Q268.925 37.753124 267.175 37.753124Q265.6125 37.753124 264.6125 36.8625Q263.6125 35.971874 263.6125 34.6125Q263.6125 32.971874 264.8625 32.065624Q266.1281 31.14375 268.39374 31.14375L270.15936 31.14375L270.15936 30.315624Q270.15936 29.3625 269.58124 28.8Q269.01874 28.2375 267.925 28.2375Q266.95624 28.2375 266.3 28.7375Q265.64374 29.221874 265.64374 29.909374L263.83124 29.909374Q263.83124 29.128124 264.39374 28.39375Q264.95624 27.64375 265.90936 27.221874Q266.8781 26.784374 268.03436 26.784374Q269.8625 26.784374 270.89374 27.70625Q271.925 28.6125 271.97186 30.221874L271.97186 35.08125Q271.97186 36.534374 272.33124 37.39375L272.33124 37.55L270.4406 37.55ZM267.4406 36.175Q268.3 36.175 269.05 35.7375Q269.8156 35.3 270.15936 34.596874L270.15936 32.425L268.7375 32.425Q265.425 32.425 265.425 34.3625Q265.425 35.221874 265.9875 35.70625Q266.55 36.175 267.4406 36.175ZM281.0656 34.753124Q281.0656 34.01875 280.51874 33.6125Q279.97186 33.20625 278.59686 32.909374Q277.22186 32.6125 276.40936 32.20625Q275.6125 31.8 275.22186 31.2375Q274.84686 30.659374 274.84686 29.878124Q274.84686 28.58125 275.9406 27.690624Q277.03436 26.784374 278.7531 26.784374Q280.55 26.784374 281.65936 27.721874Q282.78436 28.64375 282.78436 30.08125L280.95624 30.08125Q280.95624 29.346874 280.33124 28.815624Q279.70624 28.26875 278.7531 28.26875Q277.7531 28.26875 277.1906 28.70625Q276.64374 29.128124 276.64374 29.83125Q276.64374 30.471874 277.15936 30.815624Q277.675 31.14375 279.03436 31.45625Q280.39374 31.753124 281.22186 32.175Q282.0656 32.58125 282.47186 33.175Q282.8781 33.76875 282.8781 34.6125Q282.8781 36.034374 281.7375 36.89375Q280.6125 37.753124 278.8 37.753124Q277.53436 37.753124 276.55 37.3Q275.58124 36.846874 275.01874 36.05Q274.47186 35.2375 274.47186 34.3L276.28436 34.3Q276.33124 35.20625 277.0031 35.7375Q277.6906 36.26875 278.8 36.26875Q279.83124 36.26875 280.4406 35.8625Q281.0656 35.440624 281.0656 34.753124ZM298.84686 32.378124Q298.84686 34.8 297.7375 36.284374Q296.64374 37.753124 294.7531 37.753124Q292.83124 37.753124 291.72186 36.51875L291.72186 41.6125L289.925 41.6125L289.925 26.9875L291.5656 26.9875L291.65936 28.159374Q292.7531 26.784374 294.72186 26.784374Q296.6281 26.784374 297.7375 28.221874Q298.84686 29.659374 298.84686 32.221874L298.84686 32.378124ZM297.03436 32.175Q297.03436 30.39375 296.26874 29.3625Q295.51874 28.315624 294.1906 28.315624Q292.55 28.315624 291.72186 29.76875L291.72186 34.83125Q292.53436 36.26875 294.20624 36.26875Q295.5031 36.26875 296.26874 35.2375Q297.03436 34.20625 297.03436 32.175ZM300.4406 32.175Q300.4406 30.6125 301.05 29.378124Q301.65936 28.128124 302.7375 27.45625Q303.83124 26.784374 305.2375 26.784374Q307.39374 26.784374 308.72186 28.284374Q310.0656 29.76875 310.0656 32.253124L310.0656 32.378124Q310.0656 33.925 309.47186 35.159374Q308.8781 36.378124 307.76874 37.065624Q306.675 37.753124 305.2531 37.753124Q303.1125 37.753124 301.76874 36.253124Q300.4406 34.753124 300.4406 32.3L300.4406 32.175ZM302.2531 32.378124Q302.2531 34.14375 303.0656 35.20625Q303.89374 36.26875 305.2531 36.26875Q306.6281 36.26875 307.4406 35.190624Q308.2531 34.1125 308.2531 32.175Q308.2531 30.425 307.425 29.346874Q306.59686 28.26875 305.2375 28.26875Q303.89374 28.26875 303.0656 29.33125Q302.2531 30.39375 302.2531 32.378124ZM317.01874 28.596874Q316.6125 28.534374 316.14374 28.534374Q314.3625 28.534374 313.72186 30.05L313.72186 37.55L311.925 37.55L311.925 26.9875L313.675 26.9875L313.70624 28.20625Q314.59686 26.784374 316.22186 26.784374Q316.7531 26.784374 317.01874 26.925L317.01874 28.596874ZM330.0656 34.753124Q330.0656 34.01875 329.51874 33.6125Q328.97186 33.20625 327.59686 32.909374Q326.22186 32.6125 325.40936 32.20625Q324.6125 31.8 324.22186 31.2375Q323.84686 30.659374 323.84686 29.878124Q323.84686 28.58125 324.9406 27.690624Q326.03436 26.784374 327.7531 26.784374Q329.55 26.784374 330.65936 27.721874Q331.78436 28.64375 331.78436 30.08125L329.95624 30.08125Q329.95624 29.346874 329.33124 28.815624Q328.70624 28.26875 327.7531 28.26875Q326.7531 28.26875 326.1906 28.70625Q325.64374 29.128124 325.64374 29.83125Q325.64374 30.471874 326.15936 30.815624Q326.675 31.14375 328.03436 31.45625Q329.39374 31.753124 330.22186 32.175Q331.0656 32.58125 331.47186 33.175Q331.8781 33.76875 331.8781 34.6125Q331.8781 36.034374 330.7375 36.89375Q329.6125 37.753124 327.8 37.753124Q326.53436 37.753124 325.55 37.3Q324.58124 36.846874 324.01874 36.05Q323.47186 35.2375 323.47186 34.3L325.28436 34.3Q325.33124 35.20625 326.0031 35.7375Q326.6906 36.26875 327.8 36.26875Q328.83124 36.26875 329.4406 35.8625Q330.0656 35.440624 330.0656 34.753124ZM338.3 37.753124Q336.15936 37.753124 334.8 36.346874Q333.45624 34.925 333.45624 32.565624L333.45624 32.221874Q333.45624 30.659374 334.05 29.425Q334.65936 28.190624 335.7375 27.4875Q336.8156 26.784374 338.08124 26.784374Q340.14374 26.784374 341.28436 28.14375Q342.425 29.503124 342.425 32.034374L342.425 32.784374L335.26874 32.784374Q335.3 34.346874 336.175 35.315624Q337.05 36.26875 338.39374 36.26875Q339.3625 36.26875 340.01874 35.878124Q340.6906 35.4875 341.1906 34.846874L342.28436 35.70625Q340.95624 37.753124 338.3 37.753124ZM338.08124 28.26875Q336.9875 28.26875 336.2375 29.065624Q335.5031 29.8625 335.33124 31.3L340.6125 31.3L340.6125 31.159374Q340.53436 29.784374 339.8625 29.034374Q339.20624 28.26875 338.08124 28.26875ZM344.4875 32.175Q344.4875 29.70625 345.6281 28.253124Q346.76874 26.784374 348.65936 26.784374Q350.59686 26.784374 351.675 28.159374L351.76874 26.9875L353.40936 26.9875L353.40936 37.3Q353.40936 39.346874 352.1906 40.51875Q350.9875 41.70625 348.925 41.70625Q347.78436 41.70625 346.6906 41.221874Q345.59686 40.7375 345.01874 39.878124L345.95624 38.8Q347.1281 40.2375 348.8 40.2375Q350.1281 40.2375 350.8625 39.4875Q351.59686 38.753124 351.59686 37.409374L351.59686 36.4875Q350.51874 37.753124 348.64374 37.753124Q346.78436 37.753124 345.6281 36.253124Q344.4875 34.753124 344.4875 32.175ZM346.3 32.378124Q346.3 34.175 347.03436 35.190624Q347.76874 36.20625 349.08124 36.20625Q350.8 36.20625 351.59686 34.659374L351.59686 29.83125Q350.76874 28.315624 349.1125 28.315624Q347.78436 28.315624 347.03436 29.346874Q346.3 30.378124 346.3 32.378124ZM362.4406 36.503124Q361.39374 37.753124 359.34686 37.753124Q357.65936 37.753124 356.76874 36.76875Q355.89374 35.784374 355.8781 33.8625L355.8781 26.9875L357.6906 26.9875L357.6906 33.815624Q357.6906 36.20625 359.64374 36.20625Q361.70624 36.20625 362.39374 34.675L362.39374 26.9875L364.20624 26.9875L364.20624 37.55L362.4875 37.55L362.4406 36.503124ZM368.6281 26.9875L368.6906 28.315624Q369.89374 26.784374 371.84686 26.784374Q375.20624 26.784374 375.22186 30.565624L375.22186 37.55L373.425 37.55L373.425 30.55Q373.40936 29.409374 372.89374 28.8625Q372.39374 28.315624 371.3 28.315624Q370.425 28.315624 369.7531 28.784374Q369.09686 29.253124 368.72186 30.01875L368.72186 37.55L366.925 37.55L366.925 26.9875L368.6281 26.9875ZM377.47186 32.175Q377.47186 29.753124 378.6281 28.26875Q379.78436 26.784374 381.64374 26.784374Q383.5031 26.784374 384.58124 28.05L384.58124 22.55L386.39374 22.55L386.39374 37.55L384.7375 37.55L384.64374 36.409374Q383.5656 37.753124 381.6281 37.753124Q379.8 37.753124 378.6281 36.253124Q377.47186 34.7375 377.47186 32.315624L377.47186 32.175ZM379.28436 32.378124Q379.28436 34.175 380.01874 35.190624Q380.76874 36.20625 382.08124 36.20625Q383.8 36.20625 384.58124 34.675L384.58124 29.815624Q383.78436 28.315624 382.09686 28.315624Q380.76874 28.315624 380.01874 29.346874Q379.28436 30.378124 379.28436 32.378124ZM388.4406 32.175Q388.4406 30.6125 389.05 29.378124Q389.65936 28.128124 390.7375 27.45625Q391.83124 26.784374 393.2375 26.784374Q395.39374 26.784374 396.72186 28.284374Q398.0656 29.76875 398.0656 32.253124L398.0656 32.378124Q398.0656 33.925 397.47186 35.159374Q396.8781 36.378124 395.76874 37.065624Q394.675 37.753124 393.2531 37.753124Q391.1125 37.753124 389.76874 36.253124Q388.4406 34.753124 388.4406 32.3L388.4406 32.175ZM390.2531 32.378124Q390.2531 34.14375 391.0656 35.20625Q391.89374 36.26875 393.2531 36.26875Q394.6281 36.26875 395.4406 35.190624Q396.2531 34.1125 396.2531 32.175Q396.2531 30.425 395.425 29.346874Q394.59686 28.26875 393.2375 28.26875Q391.89374 28.26875 391.0656 29.33125Q390.2531 30.39375 390.2531 32.378124Z" fill-rule="nonzero"/></svg>